<?xml version="1.0" standalone="no"?>
<!DOCTYPE svg PUBLIC "-//W3C//DTD SVG 20010904//EN"
 "http://www.w3.org/TR/2001/REC-SVG-20010904/DTD/svg10.dtd">
<svg version="1.0" xmlns="http://www.w3.org/2000/svg"
 width="800.000000pt" height="800.000000pt" viewBox="0 0 800.000000 800.000000"
 preserveAspectRatio="xMidYMid meet">

<g transform="translate(0.000000,800.000000) scale(0.100000,-0.100000)"
fill="#000000" stroke="none">
<path d="M3790 7399 c-226 -18 -254 -24 -322 -65 -34 -22 -74 -44 -88 -50
l-25 -11 25 -6 c14 -3 93 -15 175 -27 83 -11 164 -24 180 -29 l30 -8 -27 -11
c-20 -8 -51 -6 -130 8 -56 10 -152 23 -213 29 -60 7 -143 16 -183 21 -75 10
-179 13 -171 5 3 -2 56 -9 119 -15 234 -22 529 -69 506 -82 -8 -5 -65 0 -138
11 -68 11 -168 25 -223 30 -55 6 -140 15 -190 21 -94 10 -181 13 -174 6 2 -2
60 -9 129 -16 69 -6 202 -22 295 -36 94 -14 187 -28 208 -31 20 -3 37 -9 37
-13 0 -10 -30 -21 -39 -15 -8 4 -345 55 -370 55 -45 0 16 -12 169 -35 96 -14
178 -29 184 -35 18 -18 6 -17 -150 9 -66 12 -162 25 -214 31 -52 6 -137 15
-187 21 l-93 10 -55 -41 c-30 -22 -101 -70 -157 -107 -57 -36 -166 -108 -243
-158 -78 -51 -166 -107 -197 -124 -33 -19 -65 -46 -77 -66 -10 -18 -30 -39
-43 -45 l-23 -11 21 18 c12 10 27 28 33 40 13 25 15 89 3 97 -4 2 -6 -12 -4
-32 3 -31 -3 -44 -33 -79 -20 -24 -33 -43 -28 -43 30 -2 -125 -66 -207 -86
-43 -11 -46 -13 -15 -9 l40 4 -25 -19 c-41 -32 -252 -172 -255 -168 -1 2 -8
14 -15 27 l-12 24 -23 -29 c-37 -46 -26 -98 66 -307 44 -100 84 -186 90 -192
5 -5 9 -15 9 -22 0 -7 79 -172 175 -367 96 -195 175 -359 175 -365 0 -6 31
-73 69 -148 37 -76 83 -172 102 -213 18 -41 45 -96 59 -122 131 -243 160 -299
160 -312 0 -18 102 -216 168 -326 60 -99 92 -154 147 -253 38 -68 42 -72 79
-75 21 -2 45 -1 53 2 13 5 13 9 -1 31 -17 25 -16 27 51 123 96 139 144 181
338 294 l170 99 140 -6 c213 -10 234 -9 298 19 68 31 73 21 22 -49 -35 -50
-55 -106 -99 -280 -35 -138 -54 -189 -130 -347 -76 -159 -83 -183 -96 -338 -5
-63 -19 -155 -30 -205 -17 -77 -46 -234 -66 -353 -4 -23 -9 -32 -19 -28 -11 4
-12 0 -5 -18 5 -13 7 -40 5 -60 -4 -44 2 -46 13 -5 l8 32 27 -53 c15 -29 25
-55 22 -58 -3 -3 6 -19 19 -37 13 -17 34 -53 47 -81 12 -27 29 -57 37 -66 8
-10 12 -24 8 -33 -3 -9 1 -18 9 -21 8 -4 15 -11 15 -16 0 -6 11 -23 25 -40 14
-16 25 -36 25 -44 0 -8 4 -14 10 -14 5 0 12 -11 15 -23 6 -22 13 -24 122 -35
128 -13 155 -24 177 -77 8 -18 24 -40 36 -47 32 -19 59 -69 70 -128 6 -29 21
-68 35 -85 16 -21 28 -57 35 -100 6 -37 17 -80 25 -94 l14 -26 1 30 1 30 20
-37 c28 -55 32 -47 8 15 -21 50 -38 138 -25 126 4 -4 25 -30 46 -60 43 -56 52
-52 21 10 -22 42 -78 95 -111 106 -37 12 -10 22 135 51 l139 27 76 -81 c79
-85 133 -165 156 -231 11 -32 12 -71 4 -197 -5 -86 -12 -159 -14 -161 -2 -3
-55 -16 -118 -29 -62 -13 -123 -26 -135 -29 -18 -4 -22 0 -26 27 l-4 33 -1
-32 c-2 -41 -17 -42 -70 -4 -49 36 -58 49 -38 57 8 3 17 12 20 20 4 10 -6 8
-33 -8 -36 -21 -46 -48 -17 -48 29 0 56 -46 57 -96 l1 -49 11 43 c9 32 15 40
23 32 7 -7 29 -13 50 -13 32 -2 40 -6 42 -24 2 -13 8 -23 13 -23 5 0 34 -51
65 -112 65 -133 68 -137 94 -120 11 6 29 12 40 12 11 0 20 2 20 5 0 3 -18 42
-41 87 -22 44 -35 79 -27 76 90 -34 80 -35 180 12 103 48 197 70 412 96 109
13 140 14 146 4 6 -9 9 -9 12 1 7 20 -42 169 -96 292 -26 60 -56 132 -66 160
-45 128 -98 241 -138 295 -35 49 -57 67 -130 105 -48 26 -100 55 -117 64 -187
108 -172 106 -234 45 -28 -27 -55 -61 -61 -76 -8 -22 -40 -38 -40 -21 0 5 113
149 139 178 4 4 53 15 110 26 l102 19 47 -37 c26 -20 90 -65 142 -100 52 -35
112 -80 132 -99 21 -20 40 -33 43 -30 7 7 -96 96 -155 134 -25 16 -74 51 -110
79 -55 43 -61 50 -42 53 13 2 29 -1 36 -7 9 -7 28 -5 65 6 37 12 54 14 59 6 4
-6 48 -38 98 -71 51 -33 95 -65 98 -71 4 -6 12 -11 18 -11 18 0 -43 60 -82 81
-19 10 -53 34 -74 53 l-39 34 84 -1 c78 0 87 -2 121 -30 48 -38 63 -27 17 13
-22 19 -29 30 -19 30 8 1 33 4 55 6 38 4 44 1 110 -58 38 -35 89 -83 113 -107
23 -24 46 -41 50 -37 3 4 -40 52 -97 107 -57 55 -102 101 -100 103 2 1 23 8
46 15 43 12 105 7 458 -34 66 -7 173 -19 237 -26 l117 -13 100 33 c96 31 142
54 131 64 -3 3 -57 -1 -120 -9 -133 -15 -220 -17 -131 -3 30 5 57 11 59 14 3
2 -61 3 -142 2 -107 -1 -145 -5 -142 -14 3 -6 -1 -17 -9 -23 -10 -8 -16 -7
-23 6 -8 15 -13 16 -25 5 -19 -15 -155 -9 -292 14 -49 8 -106 15 -125 16 -31
1 -32 2 -10 8 22 6 19 8 -23 15 -38 6 -52 4 -75 -12 -15 -11 -37 -22 -49 -26
-13 -3 -33 -9 -45 -12 -17 -5 -9 8 32 50 36 37 68 60 92 67 21 5 38 14 38 19
0 6 13 10 28 10 16 0 37 6 48 14 17 13 18 18 7 45 -7 20 -8 33 -1 37 5 3 10 4
12 3 1 -2 10 -16 19 -31 10 -16 24 -28 31 -28 17 0 65 39 49 40 -7 0 -13 -4
-13 -9 0 -5 -8 -12 -17 -15 -11 -5 -24 2 -39 21 -13 15 -23 32 -24 36 0 14
-60 97 -70 97 -4 0 -2 -25 7 -56 13 -52 13 -57 -4 -70 -26 -19 -31 -18 -48 16
-27 52 -30 37 -7 -30 3 -9 -6 -5 -21 9 -29 26 -36 18 -12 -13 13 -17 13 -22
-2 -38 -19 -21 -49 -24 -56 -5 -2 6 -8 9 -12 5 -4 -4 -3 -13 3 -21 9 -10 -3
-23 -51 -60 -54 -41 -63 -45 -69 -30 -6 17 -7 17 -7 1 -1 -10 -6 -18 -12 -18
-6 0 -9 -6 -6 -12 8 -25 -53 -58 -107 -58 -39 0 -47 3 -38 12 19 19 14 33 -6
15 -25 -23 -28 -22 -39 11 -12 33 7 124 31 150 9 10 16 23 16 28 0 5 16 27 35
49 35 38 35 41 29 100 -4 33 -10 64 -15 69 -5 6 -7 -15 -3 -48 4 -48 1 -63
-18 -94 -19 -31 -23 -34 -26 -17 -2 11 -10 39 -18 63 -8 23 -14 68 -14 98 0
31 -4 53 -9 49 -5 -3 -21 41 -34 97 -25 102 -25 103 -26 48 0 -60 14 -184 25
-215 6 -18 4 -17 -19 4 -14 13 -36 29 -49 35 -12 6 -44 50 -70 96 -26 47 -48
80 -48 74 0 -14 73 -166 105 -219 14 -22 25 -49 25 -60 0 -11 9 -31 20 -45 11
-14 20 -30 20 -37 0 -6 14 -21 30 -33 17 -12 30 -25 30 -30 0 -5 -13 -23 -30
-40 -63 -64 -72 -99 -37 -134 9 -10 17 -24 17 -31 0 -22 -64 -29 -107 -13 -29
12 -63 14 -148 9 -96 -5 -116 -10 -157 -33 l-46 -28 -6 63 c-4 34 -15 139 -26
232 -13 117 -21 281 -25 525 -8 457 -7 525 10 642 19 126 43 194 99 270 103
144 238 349 286 438 29 52 61 106 71 119 10 13 16 27 14 31 -12 19 17 19 82
-1 37 -11 82 -27 98 -34 112 -51 213 -66 300 -45 59 14 281 12 346 -3 64 -16
149 -75 224 -159 53 -59 151 -205 148 -219 -2 -5 6 -18 17 -29 37 -37 73 -125
117 -285 24 -88 48 -176 54 -195 19 -58 102 -235 112 -239 5 -2 28 -21 49 -42
22 -22 44 -39 49 -39 5 0 9 -11 9 -25 0 -14 5 -25 10 -25 6 0 10 -8 8 -17 -3
-19 2 -20 38 -9 15 5 24 1 28 -11 8 -19 -17 -43 -45 -43 -24 0 -33 -16 -58
-103 -26 -88 -25 -90 37 -212 59 -114 217 -355 234 -355 39 0 -5 107 -61 147
-53 39 -60 47 -25 30 37 -19 104 -91 104 -112 0 -27 19 -15 40 25 l20 40 -28
31 c-15 17 -70 52 -121 77 -100 50 -128 76 -69 66 65 -12 154 -38 207 -61 56
-24 81 -22 46 3 -25 18 -149 58 -232 74 -35 7 -63 16 -63 20 0 7 128 -13 160
-26 8 -3 35 -8 60 -11 25 -3 55 -11 67 -19 12 -8 29 -11 37 -8 19 7 115 243
171 419 74 233 152 623 129 644 -5 5 -97 16 -204 26 -390 34 -717 116 -785
196 -13 16 -36 54 -51 86 -33 72 -58 110 -160 249 -72 97 -88 113 -135 135
-53 24 -58 24 -339 24 l-285 0 -120 32 c-66 17 -140 35 -165 40 -42 8 -45 11
-51 45 -4 29 -1 43 18 67 20 25 29 29 56 25 26 -4 39 1 70 30 33 31 47 56 32
56 -13 0 -62 -30 -74 -44 -18 -21 -31 -20 -31 3 0 10 -9 55 -20 100 -14 53
-20 106 -18 149 3 58 6 67 23 70 17 2 23 -6 34 -45 8 -26 18 -55 22 -63 4 -8
15 -36 24 -62 9 -27 20 -48 25 -48 9 0 -14 86 -44 169 -20 56 -21 54 12 73
l27 16 28 -107 c32 -121 52 -164 42 -88 -3 26 -17 85 -31 132 -20 71 -22 88
-12 105 17 27 26 25 34 -7 16 -69 53 -168 60 -160 3 2 -9 53 -26 111 l-31 106
25 33 c41 54 83 132 91 168 l8 34 18 -54 c13 -38 16 -58 8 -67 -6 -7 -7 -32
-3 -63 8 -62 -11 -71 -21 -11 -10 59 -29 51 -21 -8 5 -41 3 -52 -14 -67 -19
-17 -20 -17 -30 9 -5 15 -10 32 -10 37 0 5 -7 9 -15 9 -8 0 -15 -2 -15 -4 0
-8 63 -162 71 -171 10 -14 39 -97 39 -115 0 -8 -36 -37 -80 -63 -44 -27 -80
-52 -80 -58 0 -14 16 -11 56 12 27 15 39 17 44 9 5 -9 13 -9 27 -1 11 5 31 8
44 6 21 -4 117 -14 159 -17 8 -1 21 -7 28 -15 15 -14 52 -9 63 9 9 15 209 10
227 -5 8 -6 31 -12 51 -12 31 0 36 -3 34 -22 -2 -15 3 -23 12 -23 8 0 15 -8
15 -18 0 -19 38 -57 48 -48 3 3 3 6 -1 6 -3 0 1 16 9 35 7 19 14 49 14 67 0
46 10 76 26 82 12 4 11 0 -2 -25 -9 -17 -13 -41 -10 -52 3 -12 -2 -42 -11 -67
-9 -26 -14 -54 -10 -63 8 -22 34 -12 42 16 16 55 28 76 51 81 13 4 31 18 40
32 16 24 16 27 -4 53 l-21 29 25 33 c13 18 24 38 24 45 0 18 20 68 25 62 8 -7
-25 -101 -41 -119 -15 -16 -15 -20 0 -41 29 -41 19 -64 -59 -127 -9 -7 -15
-22 -12 -32 3 -11 2 -17 -2 -15 -4 3 -7 -5 -8 -17 0 -12 1 -16 4 -9 3 6 9 12
15 12 6 0 27 14 48 30 39 31 60 38 60 20 0 -6 9 -6 25 0 24 9 26 8 23 -23 -1
-18 2 -38 6 -45 4 -7 3 -12 -1 -12 -5 0 -9 -8 -10 -17 0 -10 -3 -36 -7 -57 -4
-32 0 -52 25 -100 35 -70 45 -148 22 -171 -10 -10 -10 -15 -2 -15 9 0 9 -3 -1
-15 -6 -8 -9 -19 -5 -25 4 -6 -1 -19 -12 -28 -10 -9 -19 -28 -20 -42 -2 -21 0
-20 17 12 19 34 55 66 126 107 28 17 30 22 29 71 l-1 54 -50 0 c-53 1 -86 23
-104 72 -26 67 49 184 117 184 11 0 22 2 25 5 9 9 -4 55 -16 55 -32 0 -116 51
-130 79 -34 65 -2 181 57 209 26 13 27 15 14 35 -8 12 -18 38 -22 57 -17 81
-41 78 -84 -11 -18 -38 -36 -67 -39 -65 -3 3 13 41 34 83 21 43 40 79 40 81 1
1 15 -10 33 -25 19 -17 31 -37 31 -53 0 -14 9 -40 21 -59 11 -18 19 -34 17
-36 -2 -1 -18 -10 -35 -19 -18 -9 -39 -29 -47 -44 -53 -102 -12 -187 100 -210
38 -8 39 -9 42 -54 3 -42 1 -46 -16 -41 -29 7 -77 -22 -101 -60 -28 -46 -27
-104 3 -141 22 -26 28 -28 74 -24 l50 5 6 -81 c21 -306 39 -406 73 -406 12 0
14 6 8 28 -15 58 -34 179 -35 219 l0 41 34 -9 c69 -19 112 21 103 98 -6 60
-38 93 -89 93 -43 0 -47 12 -26 82 10 35 9 42 -11 69 -18 24 -23 46 -25 110
-3 80 6 111 18 63 4 -14 26 -45 50 -69 101 -100 210 -69 218 61 2 38 6 48 18
45 8 -3 36 -6 61 -9 38 -3 51 1 77 22 35 31 57 85 48 123 -10 37 -46 81 -86
105 -19 12 -36 23 -38 24 -2 1 6 21 19 45 17 35 20 54 16 101 -6 69 -31 108
-86 132 -56 26 -104 15 -154 -34 l-38 -39 -45 35 c-25 18 -50 34 -55 34 -23 0
-5 31 27 46 47 23 84 78 84 128 0 32 -7 46 -45 83 l-44 45 9 157 c11 176 14
206 37 379 17 122 17 122 -4 144 l-22 21 -5 -34 c-4 -19 -15 -104 -26 -189
-30 -235 -44 -297 -88 -390 l-41 -85 0 48 c-1 86 -51 165 -117 187 -67 22
-128 -44 -141 -151 -5 -41 -9 -49 -22 -43 -9 4 -36 14 -61 23 -26 9 -38 17
-28 19 9 2 30 -4 47 -12 42 -22 51 -20 51 14 0 16 11 54 24 84 25 57 62 86
108 86 58 -1 132 -71 144 -137 3 -18 9 -33 13 -33 4 0 17 21 29 48 24 55 54
222 77 441 l17 153 -33 34 -32 33 -46 -33 c-25 -18 -60 -41 -78 -50 -17 -8
-35 -25 -38 -36 -4 -12 -15 -31 -26 -43 -11 -12 -32 -37 -47 -56 -24 -28 -36
-34 -80 -39 -89 -8 -129 37 -97 109 19 41 104 105 128 97 6 -3 24 0 39 6 l26
11 -19 40 c-26 51 -18 96 21 128 16 14 35 27 42 29 7 3 -6 21 -32 44 -24 21
-48 44 -54 49 -192 176 -515 390 -779 514 -526 249 -1136 364 -1687 320z m850
-123 c25 -13 115 -48 200 -80 194 -70 219 -90 412 -309 l146 -167 58 -137 c77
-182 102 -219 340 -497 l61 -71 -33 -53 -32 -54 -63 77 c-94 114 -112 134
-100 110 14 -31 98 -142 143 -191 l40 -44 -20 -40 -20 -41 -95 123 c-51 68
-107 143 -123 168 -16 25 -60 88 -99 142 -38 53 -99 139 -135 192 -36 52 -69
96 -73 96 -11 0 -5 -9 63 -105 32 -44 93 -134 137 -200 100 -152 228 -328 310
-426 34 -43 63 -79 63 -83 0 -3 -15 -21 -34 -40 l-34 -34 -87 129 c-48 71 -89
129 -91 129 -13 0 137 -246 160 -262 5 -3 3 -13 -6 -22 -9 -9 -19 -33 -23 -54
-4 -24 -14 -43 -29 -53 -13 -7 -40 -34 -60 -57 l-36 -44 -20 46 c-10 25 -24
46 -30 46 -16 0 -12 -19 22 -88 l32 -65 -28 -24 c-16 -13 -32 -21 -37 -16 -4
4 -23 46 -42 93 l-35 85 39 36 40 37 -26 67 c-14 38 -40 102 -59 144 -18 42
-38 87 -44 101 -24 55 -10 -3 18 -77 17 -42 30 -82 30 -88 0 -5 12 -41 27 -79
l26 -69 -27 -24 c-36 -31 -42 -29 -49 15 -10 57 -39 149 -44 135 -6 -17 27
-162 39 -169 13 -8 -21 -44 -43 -44 -20 0 -25 12 -34 90 -3 30 -13 80 -21 110
l-14 55 5 -67 c3 -38 8 -97 11 -133 5 -56 4 -65 -10 -65 -9 0 -26 -16 -38 -36
-19 -28 -99 -84 -122 -84 -3 0 2 19 10 43 21 59 85 328 81 340 -2 6 -13 -23
-26 -64 -39 -128 -40 -130 -36 -38 2 47 1 99 -4 115 -7 27 -8 26 -14 -20 -4
-27 -7 -97 -7 -155 0 -91 -5 -121 -31 -206 -17 -55 -33 -102 -34 -104 -6 -6
-65 40 -61 47 4 7 31 216 40 317 11 114 -12 22 -35 -146 -13 -90 -24 -166 -26
-168 -2 -3 -11 3 -20 12 -15 14 -15 27 -5 124 14 130 15 164 3 143 -10 -18
-31 -157 -31 -207 0 -34 -1 -35 -18 -20 -20 18 -32 22 -32 9 0 -8 118 -107
163 -137 l27 -17 20 46 c10 25 24 46 29 46 21 0 22 -22 2 -54 -29 -47 -26 -57
5 -15 15 20 24 43 21 56 -2 13 2 28 10 35 12 10 18 8 30 -7 15 -19 15 -19 9 8
-7 29 2 35 23 15 11 -11 13 -10 8 4 -4 11 4 29 22 49 l28 31 23 -36 c12 -20
24 -36 27 -36 2 0 2 19 -2 41 -5 30 -3 44 6 50 23 14 29 -1 29 -68 0 -62 -3
-72 -54 -157 -64 -106 -116 -170 -157 -191 -43 -23 -146 -28 -157 -8 -7 12
-21 -8 -61 -81 -28 -53 -51 -102 -51 -110 0 -7 -3 -16 -7 -20 -12 -12 -10 -57
2 -53 5 2 11 19 12 39 1 19 17 60 35 92 l33 57 3 -155 c1 -93 6 -156 12 -156
17 0 11 -42 -7 -57 -19 -15 -18 -15 33 1 25 8 41 -19 24 -39 -8 -9 -8 -15 0
-20 5 -3 10 -15 10 -25 0 -19 1 -18 -290 -109 -142 -44 -331 -109 -367 -126
-35 -17 -54 -43 -51 -72 0 -10 0 -55 0 -100 l-2 -83 -57 0 -58 0 5 147 c4 82
11 156 17 167 7 12 52 32 129 57 66 22 123 39 127 39 18 0 107 43 107 52 0 5
-9 4 -20 -2 -46 -25 -14 17 108 138 163 164 180 187 62 85 -101 -87 -306 -230
-407 -282 -33 -17 -86 -37 -118 -43 l-57 -13 -84 45 c-191 101 -453 307 -532
417 -49 71 -200 441 -185 456 3 3 16 2 30 -4 33 -12 43 -11 43 4 0 36 75 137
102 137 4 0 1 -15 -6 -32 -16 -38 -12 -98 10 -140 19 -36 30 -31 13 6 -7 14
-10 28 -8 31 8 7 138 25 186 25 38 0 42 -2 48 -30 4 -16 11 -30 17 -30 12 0 1
54 -19 93 -17 33 -11 46 12 27 25 -21 29 -3 5 29 -12 19 -17 31 -9 31 23 0
-12 29 -66 55 -65 30 -135 33 -197 6 -55 -24 -80 -52 -113 -124 -32 -70 -52
-72 -73 -7 -16 50 -20 56 -28 48 -3 -3 2 -34 11 -67 16 -62 16 -62 -7 -81 -13
-11 -30 -20 -38 -20 -57 -5 -78 -7 -100 -14 -25 -7 -25 -5 -54 111 -45 187
-78 303 -86 303 -4 0 -1 -28 7 -62 22 -97 31 -148 25 -148 -3 0 -18 12 -34 27
-15 14 -31 23 -35 20 -3 -4 4 -17 16 -28 12 -12 21 -22 19 -24 -5 -4 -251 40
-378 69 -146 32 -272 52 -484 75 -92 11 -172 23 -176 28 -4 4 -11 18 -15 31
-8 27 -17 27 210 2 231 -27 325 -42 548 -89 100 -22 199 -42 220 -45 38 -7 48
3 23 23 -10 9 -12 21 -5 49 11 48 11 54 0 47 -5 -3 -12 -19 -16 -35 -7 -33
-17 -37 -34 -16 -9 11 -8 30 4 81 8 36 15 74 15 83 -1 28 -26 -26 -40 -85 -6
-29 -14 -53 -17 -53 -14 0 -44 24 -63 50 l-22 30 62 123 c63 124 76 145 85
136 2 -3 14 -45 26 -95 23 -94 40 -147 45 -141 2 1 -5 39 -15 82 -44 186 -92
405 -105 478 l-14 77 27 39 c37 56 135 180 141 180 3 1 4 -29 2 -65 -6 -89 13
-108 23 -22 17 162 23 178 88 241 33 32 93 83 133 113 41 30 74 57 74 60 0 7
-38 -16 -88 -53 -18 -14 -35 -23 -38 -21 -2 3 11 25 29 49 19 24 60 81 92 126
64 92 97 113 201 133 44 9 63 17 70 33 12 27 131 110 214 150 l64 31 130 -16
129 -17 121 28 c230 54 230 54 326 7z m-1551 -158 c8 -7 11 -8 8 -3 -3 6 3 11
13 11 14 0 16 -3 8 -13 -9 -12 -268 -190 -293 -203 -28 -14 -130 -84 -133 -92
-2 -4 -8 -8 -12 -8 -5 0 -98 -58 -207 -129 -230 -149 -428 -271 -440 -271 -4
0 -1 5 7 10 11 7 12 10 2 10 -8 0 -26 -8 -40 -18 -35 -25 -62 -34 -62 -22 0 6
6 10 14 10 8 0 16 4 18 8 2 7 473 321 833 558 105 69 258 163 266 163 3 1 11
-5 18 -11z m1 -298 c0 -5 -8 -10 -17 -10 -15 0 -16 2 -3 10 19 12 20 12 20 0z
m135 0 c3 -5 1 -10 -4 -10 -6 0 -11 5 -11 10 0 6 2 10 4 10 3 0 8 -4 11 -10z
m-62 -75 c-3 -9 -8 -14 -10 -11 -3 3 -2 9 2 15 9 16 15 13 8 -4z m-21 -37 c-7
-7 -12 -22 -12 -33 0 -12 -11 -32 -25 -45 -14 -13 -25 -30 -25 -37 0 -8 -5
-11 -10 -8 -7 4 -3 19 10 39 11 19 20 40 20 48 0 9 10 23 23 31 27 19 35 21
19 5z m-332 -78 c0 -5 -2 -10 -4 -10 -3 0 -8 5 -11 10 -3 6 -1 10 4 10 6 0 11
-4 11 -10z m216 -145 c-24 -32 -32 -35 -79 -37 -50 -1 -51 -2 -9 -5 69 -7 48
-20 -40 -28 -150 -11 -311 -34 -537 -75 -236 -43 -588 -122 -622 -141 -15 -8
-24 -8 -32 0 -6 6 -8 13 -6 16 8 7 411 99 564 129 205 39 432 75 535 85 57 5
77 9 49 10 -149 4 -551 -63 -1006 -169 -153 -35 -166 -36 -161 -13 2 11 21 21
53 30 50 12 43 12 -47 0 -9 -1 -17 2 -18 7 0 6 38 18 86 27 48 10 99 23 113
28 14 6 76 19 136 30 61 11 207 37 326 60 118 22 278 47 355 55 147 17 356 34
363 29 2 -1 -8 -18 -23 -38z m2554 -15 c0 -5 -2 -10 -4 -10 -3 0 -8 5 -11 10
-3 6 -1 10 4 10 6 0 11 -4 11 -10z m-2630 -70 c0 -5 -4 -10 -10 -10 -5 0 -18
-10 -29 -22 -17 -18 -43 -24 -163 -39 -266 -33 -528 -93 -631 -145 -109 -56
-177 -152 -163 -229 11 -57 76 -120 170 -165 103 -49 203 -78 452 -130 181
-37 200 -43 224 -70 14 -15 39 -35 55 -44 50 -26 10 -20 -304 45 -390 79 -611
135 -635 159 -11 11 -18 22 -15 24 3 3 43 -8 91 -25 102 -35 741 -179 795
-179 31 0 -37 16 -228 55 -429 88 -666 158 -683 202 -4 10 5 8 32 -8 37 -22
37 -22 -10 22 -52 49 -68 82 -68 139 0 50 15 88 48 123 14 15 21 27 16 27 -17
0 -62 -53 -79 -94 -12 -29 -19 -36 -25 -26 -11 18 12 61 50 93 69 59 188 107
385 158 182 46 170 49 -35 8 -221 -44 -322 -84 -403 -158 -24 -22 -29 -23 -37
-11 -15 23 -8 33 50 67 56 34 189 81 305 107 204 46 530 103 690 121 156 17
155 17 155 5z m-72 -244 c41 -148 43 -157 32 -218 -20 -118 -74 -251 -109
-272 -6 -4 -26 0 -45 8 -35 15 -166 38 -188 34 -7 -2 -12 3 -10 10 1 6 -2 12
-8 12 -5 0 -10 -5 -10 -11 0 -8 -15 -10 -47 -5 -76 11 -139 23 -124 25 8 0 12
4 9 7 -4 3 -16 1 -27 -6 -14 -7 -21 -7 -21 0 0 5 -18 10 -40 10 -22 0 -40 5
-40 10 0 6 -7 10 -14 10 -8 0 -27 11 -42 25 -15 14 -34 25 -42 25 -11 0 -13 7
-9 29 3 16 1 33 -6 40 -6 6 -13 35 -14 64 -1 46 2 55 32 84 19 18 39 33 45 33
7 0 10 6 7 13 -2 6 -15 11 -28 9 -23 -3 -23 -2 -5 13 11 8 25 15 32 15 6 0 22
8 35 19 37 29 67 35 85 17 19 -20 33 -20 40 -1 4 8 15 15 26 15 11 0 33 13 48
29 16 16 45 32 65 35 19 4 35 12 35 18 0 6 10 4 24 -5 30 -20 67 -17 90 6 10
9 29 18 44 18 41 2 68 10 102 29 8 5 20 9 25 9 6 1 29 -68 53 -153z m2889 92
c-3 -8 -6 -5 -6 6 -1 11 2 17 5 13 3 -3 4 -12 1 -19z m-11 -33 c6 -25 24 -35
24 -13 0 6 8 1 19 -10 10 -12 21 -19 24 -16 3 3 11 3 17 -1 8 -5 5 -11 -7 -20
-10 -7 -15 -16 -11 -20 3 -4 16 3 27 14 24 24 31 26 31 10 0 -7 7 -17 15 -23
8 -6 11 -16 7 -23 -10 -15 -82 -29 -82 -15 0 6 -20 34 -45 63 -43 51 -56 79
-35 79 5 0 12 -11 16 -25z m130 -226 c-4 -26 -2 -46 5 -55 9 -11 8 -15 -5 -20
-9 -3 -16 -10 -16 -15 0 -6 9 -5 20 1 11 6 20 17 20 25 0 8 6 15 14 15 19 0
16 -51 -4 -68 -13 -10 -11 -11 13 -6 27 6 39 -9 15 -20 -10 -5 -10 -7 0 -12 6
-3 12 -15 12 -25 0 -12 4 -17 11 -13 6 3 8 17 4 31 -5 21 -3 24 13 19 12 -4
27 3 46 23 15 16 27 31 26 33 -1 1 2 11 6 21 5 15 9 16 15 5 5 -7 14 -13 21
-13 7 0 12 -9 10 -20 -2 -11 -4 -34 -5 -51 -2 -18 -9 -39 -16 -48 -12 -14 -10
-16 15 -16 29 -1 29 -1 6 -13 -12 -7 -20 -16 -17 -19 6 -5 -60 -22 -92 -23
-19 -1 -28 -15 -9 -15 11 0 16 -5 13 -14 -3 -7 0 -19 6 -25 8 -8 5 -11 -13
-11 -13 0 -20 -3 -17 -7 4 -3 3 -11 -3 -18 -15 -18 -40 -125 -40 -173 0 -24
-4 -41 -9 -37 -5 3 -11 -5 -13 -17 -2 -16 -9 -22 -20 -20 -10 2 -18 -1 -18 -7
0 -10 -173 -6 -190 4 -5 3 -11 1 -15 -5 -3 -5 -11 -10 -16 -10 -6 0 8 34 30
76 23 41 41 86 41 98 0 15 21 43 60 80 57 55 73 87 49 101 -17 11 -5 202 15
223 9 10 19 33 22 50 9 47 18 39 10 -9z m-3776 -19 c0 -5 -4 -10 -10 -10 -5 0
-10 5 -10 10 0 6 5 10 10 10 6 0 10 -4 10 -10z m165 -345 c216 -36 614 -120
655 -137 18 -8 21 -12 10 -15 -15 -3 -114 15 -372 71 -124 27 -511 86 -565 86
-23 0 -36 6 -44 21 -11 21 -10 21 53 14 34 -4 153 -22 263 -40z m3757 -45
c-12 -5 -29 -25 -38 -43 -15 -31 -15 -38 1 -93 12 -42 28 -70 58 -100 l42 -42
-17 -28 c-22 -36 -23 -86 -2 -129 21 -45 102 -81 147 -66 16 6 32 10 34 8 2
-2 -7 -32 -20 -65 -17 -46 -26 -59 -34 -51 -7 7 -35 10 -74 7 -84 -6 -104 -28
-96 -112 4 -46 11 -65 34 -89 l28 -31 -29 21 c-25 17 -35 19 -80 10 -67 -12
-322 -2 -409 17 -103 23 -121 34 -125 80 -2 25 2 44 14 57 21 23 12 25 -11 3
-19 -20 -33 -11 -16 10 7 8 35 19 62 25 63 14 229 14 264 1 29 -11 24 -34 -6
-25 -23 8 -26 -10 -3 -19 22 -9 47 -7 64 4 25 16 -16 48 -79 61 -73 15 -237 7
-279 -14 l-32 -15 0 27 0 28 163 -1 c135 -2 170 -5 212 -22 58 -23 70 -52 33
-78 -31 -22 -70 -20 -103 5 -22 18 -29 20 -36 8 -28 -45 21 -73 160 -90 97
-12 103 -14 63 -21 -24 -4 -92 -4 -151 1 -88 6 -114 12 -139 30 -40 28 -42 62
-4 92 l27 21 -25 -7 c-59 -18 -78 -67 -39 -103 39 -37 124 -52 287 -52 l151 0
-6 63 c-9 102 15 126 129 129 58 2 60 3 74 36 18 45 19 44 -18 37 -25 -4 -46
2 -83 22 -57 32 -75 63 -77 128 l-1 45 -56 0 c-83 1 -346 26 -360 34 -11 7
-11 49 0 60 6 7 270 -12 349 -24 30 -4 56 -7 57 -6 2 2 -11 28 -28 60 -41 75
-45 143 -10 180 14 14 32 26 40 25 10 0 8 -4 -7 -9z m491 -32 c-3 -16 -12 -28
-19 -28 -12 0 -12 5 1 31 19 36 25 35 18 -3z m-4579 -14 c9 -24 2 -26 -12 -4
-7 11 -8 20 -3 20 5 0 12 -7 15 -16z m159 -23 c10 0 15 -5 12 -11 -3 -5 -2
-10 4 -10 5 0 13 5 16 11 4 5 19 8 33 5 15 -3 49 -8 76 -11 28 -3 53 -10 57
-16 3 -6 16 -8 27 -5 17 6 19 3 15 -14 -3 -11 0 -20 6 -20 6 0 11 5 11 10 0 6
27 10 60 10 36 0 60 -4 60 -11 0 -5 4 -8 10 -4 10 6 93 -17 148 -42 18 -8 43
-14 55 -13 36 3 40 1 26 -16 -12 -15 -11 -16 9 -10 14 5 22 3 22 -4 0 -7 7 -9
16 -6 8 3 12 2 9 -4 -4 -6 10 -10 34 -10 22 0 43 -5 46 -11 4 -6 27 -8 61 -5
45 5 53 4 48 -9 -3 -8 -10 -13 -14 -10 -5 3 -12 0 -16 -6 -5 -9 0 -10 17 -4
13 4 41 7 62 6 23 -1 38 3 39 11 1 7 4 -27 7 -77 5 -79 1 -181 -10 -225 -3
-12 11 -15 76 -18 44 -1 90 -7 102 -13 12 -7 40 -9 62 -6 23 3 39 2 37 -1 -2
-4 19 -6 48 -4 l53 4 33 -88 c38 -100 81 -178 113 -205 12 -10 18 -18 14 -19
-5 0 -16 7 -25 16 -13 14 -17 14 -21 3 -3 -12 -27 -32 -41 -34 -3 -1 -20 -5
-39 -9 -23 -6 -36 -4 -41 4 -4 7 -30 15 -56 17 -47 5 -51 3 -92 -38 -34 -33
-45 -51 -48 -83 -2 -25 1 -43 9 -48 9 -6 9 -8 -1 -8 -7 0 -11 -4 -8 -9 3 -5
-1 -14 -9 -21 -17 -14 -20 -50 -5 -50 6 0 10 -8 8 -17 -2 -13 3 -17 20 -16 13
2 25 -4 28 -12 4 -8 10 -15 15 -15 4 0 6 7 3 15 -4 9 3 23 18 34 13 11 33 36
43 57 11 21 28 46 38 56 19 20 23 48 6 48 -6 0 -18 -18 -27 -40 -18 -43 -42
-51 -76 -25 -19 14 -19 15 7 15 16 0 30 8 37 20 6 11 15 18 19 15 9 -5 26 24
22 39 -1 5 3 13 10 17 7 4 9 15 5 25 -6 16 -9 15 -25 -9 l-18 -27 0 28 c0 25
4 29 27 30 19 0 34 -8 49 -28 27 -38 27 -42 -6 -34 -19 4 -24 3 -15 -4 8 -5
13 -12 12 -16 -2 -10 33 -66 42 -66 4 0 8 -6 8 -14 0 -10 7 -12 23 -8 19 5 20
4 9 -11 -12 -13 -11 -21 2 -47 9 -16 23 -44 32 -61 9 -17 14 -33 11 -35 -3 -3
-63 -7 -135 -9 l-130 -3 -6 24 c-4 14 -11 22 -15 19 -5 -3 -7 -14 -4 -25 4
-16 0 -20 -21 -20 -14 0 -26 -4 -26 -10 0 -5 6 -7 14 -4 8 3 17 1 21 -5 3 -6
-1 -11 -9 -11 -9 0 -16 -4 -16 -10 0 -5 -10 -10 -22 -10 -12 0 -30 -8 -40 -17
-14 -13 -21 -14 -30 -5 -18 18 -28 15 -28 -8 0 -11 7 -20 15 -20 8 0 15 -5 15
-11 0 -8 4 -8 13 0 10 8 22 7 45 -1 27 -11 29 -13 14 -24 -13 -10 -14 -16 -6
-24 9 -9 21 -8 48 5 20 10 39 15 42 12 3 -3 -14 -14 -39 -25 -111 -49 -221
-168 -282 -304 -16 -37 -32 -68 -35 -68 -3 0 -21 30 -40 68 -20 37 -77 144
-127 237 -84 158 -158 301 -425 825 -91 179 -244 500 -283 594 -15 35 -20 33
58 27z m4177 -41 c0 -5 -2 -10 -4 -10 -3 0 -8 5 -11 10 -3 6 -1 10 4 10 6 0
11 -4 11 -10z m-818 -117 c33 -83 38 -113 17 -113 -10 0 -18 18 -55 119 -22
62 -23 81 -5 81 5 0 24 -39 43 -87z m826 13 c-2 -22 -8 -36 -16 -36 -21 0 -49
18 -56 37 -6 15 -5 15 14 -2 21 -19 42 -13 22 7 -7 7 -12 19 -11 28 0 10 4 7
11 -7 16 -33 28 -28 22 10 -4 25 -3 28 5 15 6 -9 10 -33 9 -52z m36 10 c-3
-14 -10 -26 -15 -26 -5 0 -6 7 -4 15 3 8 7 22 10 31 9 27 17 9 9 -20z m36 -1
c-13 -14 -18 -25 -12 -25 6 0 14 5 17 10 3 6 12 10 18 10 7 -1 2 -9 -10 -19
-33 -28 -28 -34 18 -26 30 5 40 4 35 -4 -5 -7 -31 -11 -67 -10 -57 2 -75 11
-44 23 8 3 15 12 15 20 0 8 10 22 22 30 32 23 35 20 8 -9z m-3580 5 c0 -5 -6
-10 -14 -10 -8 0 -18 5 -21 10 -3 6 3 10 14 10 12 0 21 -4 21 -10z m-742 -65
c-3 -3 -9 2 -12 12 -6 14 -5 15 5 6 7 -7 10 -15 7 -18z m4248 -17 c14 -14 8
-58 -8 -58 -5 0 -4 9 2 21 13 24 5 38 -12 21 -7 -7 -21 -12 -32 -11 -19 0 -18
2 4 11 25 10 25 10 -15 24 l-40 14 44 -4 c24 -3 50 -10 57 -18z m194 2 c0 -5
-4 -10 -10 -10 -5 0 -10 5 -10 10 0 6 5 10 10 10 6 0 10 -4 10 -10z m-86 -18
c3 -5 -9 -7 -27 -5 l-32 4 25 -20 c25 -21 18 -29 -10 -11 -11 7 -17 5 -21 -8
-6 -16 -7 -16 -14 1 -12 30 2 47 39 47 19 0 37 -4 40 -8z m-476 -34 c61 -6
112 -15 112 -21 0 -6 -24 -7 -62 -4 -35 4 -136 12 -225 18 -98 8 -160 16 -156
22 6 10 137 5 331 -15z m-243 -58 c156 -12 313 -34 324 -45 3 -4 -10 -4 -29
-1 -19 3 -116 12 -215 21 -99 8 -199 17 -222 19 -24 2 -43 0 -43 -4 0 -4 71
-13 158 -20 188 -15 306 -34 338 -55 26 -17 32 -27 12 -20 -7 2 -31 6 -53 9
-22 2 -69 9 -105 15 -36 5 -105 12 -155 16 -201 13 -203 13 -207 45 -4 28 10
41 37 34 6 -2 78 -8 160 -14z m-2542 -77 c3 -3 21 7 40 21 40 31 52 19 36 -36
-5 -18 -9 -44 -9 -58 0 -24 -3 -25 -55 -24 -30 0 -58 3 -61 6 -5 6 12 118 23
148 4 9 9 3 13 -18 4 -18 10 -35 13 -39z m255 -23 l30 -90 -66 3 c-73 2 -82 8
-82 50 0 16 -4 26 -10 22 -5 -3 -10 -22 -10 -41 0 -21 -4 -33 -10 -29 -5 3
-10 41 -9 83 0 63 2 73 11 55 13 -27 30 -31 26 -6 -2 10 4 19 15 21 13 3 17
-3 17 -30 0 -50 12 -108 21 -108 5 0 9 15 9 34 0 51 12 126 20 126 4 0 21 -40
38 -90z m2571 -70 c5 0 11 -8 13 -17 2 -12 -11 -27 -36 -45 -40 -26 -67 -28
-46 -3 8 9 6 14 -6 19 -13 5 -14 9 -4 21 10 12 9 15 -8 15 -12 0 -26 10 -33
21 -10 20 -9 21 9 17 13 -4 23 0 26 9 5 13 12 11 40 -11 19 -14 39 -26 45 -26z
m731 -50 c8 13 10 13 10 0 0 -34 -16 -44 -49 -30 -17 7 -34 17 -37 22 -4 5 8
2 25 -6 35 -19 39 -12 14 18 l-18 21 23 -20 c20 -16 25 -17 32 -5z m-140 0 c0
-5 -4 -10 -10 -10 -5 0 -10 5 -10 10 0 6 5 10 10 10 6 0 10 -4 10 -10z m-340
-30 c24 -24 26 -40 3 -40 -20 0 -53 28 -53 47 0 19 27 16 50 -7z m518 0 c-7
-11 -17 -20 -22 -20 -5 0 -1 9 9 20 10 11 20 20 22 20 2 0 -2 -9 -9 -20z
m-1636 -197 c18 -80 21 -110 12 -106 -7 2 -18 27 -24 54 -18 74 -34 75 -26 0
l7 -61 -27 0 c-25 0 -26 2 -20 38 3 20 11 91 18 157 14 137 11 141 60 -82z
m1573 163 c17 -9 23 -16 14 -16 -9 0 -24 -9 -34 -20 -10 -11 -23 -20 -28 -20
-6 0 -2 7 9 16 19 15 18 15 -4 11 -12 -3 -20 -1 -16 4 3 5 14 9 25 9 32 0 21
19 -16 26 -19 3 -37 10 -40 14 -7 11 55 -5 90 -24z m-125 4 c0 -5 -4 -10 -10
-10 -5 0 -10 5 -10 10 0 6 5 10 10 10 6 0 10 -4 10 -10z m227 4 c-3 -3 -12 -4
-19 -1 -8 3 -5 6 6 6 11 1 17 -2 13 -5z m-34 -14 c7 -6 21 -17 32 -26 17 -13
16 -13 -12 0 -17 9 -35 20 -38 26 -8 13 2 13 18 0z m-5 -43 c8 -10 6 -13 -9
-13 -10 0 -19 6 -19 13 0 7 4 13 9 13 5 0 13 -6 19 -13z m-58 -1 c0 -2 -8 -10
-17 -17 -16 -13 -17 -12 -4 4 13 16 21 21 21 13z m-548 -58 c-16 -16 -47 -4
-50 20 -4 23 -3 23 28 7 22 -11 29 -20 22 -27z m82 29 c-5 -13 -44 -41 -44
-31 0 3 5 14 10 25 12 21 42 27 34 6z m483 -9 c-3 -8 -6 -5 -6 6 -1 11 2 17 5
13 3 -3 4 -12 1 -19z m30 -20 c-3 -7 -5 -2 -5 12 0 14 2 19 5 13 2 -7 2 -19 0
-25z m-1137 -24 c36 -8 145 -17 243 -21 114 -4 173 -9 163 -15 -17 -9 -260
-13 -274 -4 -5 3 -66 10 -137 16 -71 6 -133 14 -138 17 -18 11 27 34 53 28 14
-4 54 -13 90 -21z m610 -44 c0 -14 -48 -43 -60 -35 -18 11 8 45 35 45 14 0 25
-4 25 -10z m-15 -50 c3 -5 -1 -10 -10 -10 -9 0 -13 5 -10 10 3 6 8 10 10 10 2
0 7 -4 10 -10z m-2523 -75 c16 -14 26 -25 21 -25 -4 0 -21 11 -37 25 -16 14
-26 25 -21 25 4 0 20 -11 37 -25z m-327 -15 c3 -5 -1 -10 -10 -10 -9 0 -13 5
-10 10 3 6 8 10 10 10 2 0 7 -4 10 -10z m425 -61 c0 -5 -4 -8 -9 -4 -17 10
-22 -15 -6 -31 24 -24 44 -80 38 -106 -4 -19 -3 -20 6 -8 10 13 13 12 26 -4 8
-11 15 -26 15 -33 0 -7 5 -13 10 -13 6 0 10 -4 10 -9 0 -5 -27 -9 -59 -10 -33
0 -63 -1 -68 -2 -4 -1 -12 0 -18 1 -5 1 -34 1 -62 0 -29 -1 -53 1 -53 5 0 12
43 91 61 110 10 11 25 37 34 58 17 41 75 77 75 46z m2749 -15 c8 -8 -34 -33
-54 -34 -31 0 -49 14 -33 27 26 21 68 24 87 7z m-2964 -74 c3 -5 1 -10 -4 -10
-6 0 -11 5 -11 10 0 6 2 10 4 10 3 0 8 -4 11 -10z m3011 -56 c-5 -14 -46 -20
-46 -7 0 4 10 22 23 40 l22 33 3 -26 c2 -14 1 -32 -2 -40z m-3286 46 c0 -5 5
-9 12 -7 6 1 14 -6 16 -15 2 -10 -1 -18 -7 -18 -6 0 -11 5 -11 10 0 6 -7 10
-15 10 -8 0 -15 7 -15 15 0 8 5 15 10 15 6 0 10 -4 10 -10z m703 -29 c42 -24
46 -30 32 -41 -8 -7 -15 -19 -15 -27 0 -8 -5 -11 -10 -8 -6 4 -7 11 -4 17 4 6
0 15 -7 20 -11 8 -10 9 3 4 10 -3 20 -1 23 4 4 6 0 10 -9 10 -25 0 -46 -12
-46 -26 0 -17 -16 -18 -26 -2 -4 6 2 19 15 29 l21 18 -22 15 c-37 26 -6 18 45
-13z m2515 -43 c-3 -7 -20 -14 -38 -16 -30 -3 -32 -2 -21 12 16 19 65 22 59 4z
m-2374 -33 c30 -19 66 -35 79 -35 23 0 24 -4 30 -83 3 -46 3 -118 0 -161 -5
-63 -9 -76 -22 -74 -10 2 -18 17 -21 38 l-6 35 -8 -33 c-6 -25 -11 -31 -19
-23 -7 7 -10 48 -8 109 3 109 0 114 -74 148 -34 16 -41 24 -43 54 -3 24 2 38
14 47 23 16 15 19 78 -22z m-719 -45 c3 -5 -3 -10 -14 -10 -12 0 -21 5 -21 10
0 6 6 10 14 10 8 0 18 -4 21 -10z m3233 -2 c7 -7 12 -17 12 -24 0 -13 -54 -24
-82 -16 -18 4 -18 6 3 28 25 26 48 31 67 12z m-3288 -18 c-18 -34 -33 -21 -21
18 1 1 8 2 16 2 13 0 14 -4 5 -20z m195 -10 c-27 -12 -43 -12 -25 0 8 5 22 9
30 9 10 0 8 -3 -5 -9z m-55 -20 c-8 -5 -19 -10 -25 -10 -5 0 -3 5 5 10 8 5 20
10 25 10 6 0 3 -5 -5 -10z m-200 -10 c0 -5 -2 -10 -4 -10 -3 0 -8 5 -11 10 -3
6 -1 10 4 10 6 0 11 -4 11 -10z m3300 -56 c0 -8 -4 -14 -8 -14 -16 0 -32 25
-32 50 l1 25 19 -24 c11 -13 20 -29 20 -37z m-3190 31 c-33 -19 -46 -19 -30 0
7 8 22 15 34 15 20 -1 20 -2 -4 -15z m-56 -26 c-3 -5 -13 -9 -22 -8 -11 0 -12
2 -4 6 6 2 10 9 7 14 -4 5 1 6 9 3 9 -3 13 -10 10 -15z m927 -308 c31 -31 39
-46 39 -75 0 -32 -3 -37 -19 -31 -44 14 -60 14 -55 0 10 -24 -18 -28 -47 -6
-40 29 -56 22 -29 -12 27 -34 19 -35 -16 -1 -19 20 -28 24 -34 14 -12 -19 -30
-2 -30 28 0 60 64 121 129 122 14 0 38 -15 62 -39z m2205 -118 c6 -7 15 -9 19
-5 4 4 4 -3 1 -15 -6 -19 -4 -22 10 -16 14 5 16 3 11 -11 -5 -13 -1 -19 13
-23 20 -5 28 -23 11 -23 -4 0 -8 -17 -7 -37 1 -30 -3 -37 -15 -35 -14 2 -15
-4 -3 -60 7 -35 17 -79 23 -98 11 -35 15 -67 7 -59 -4 4 -98 355 -111 414 l-6
30 18 -25 c9 -14 22 -30 29 -37z m-2212 -44 c-9 -16 -20 -10 -21 12 -2 17 1
18 12 9 8 -7 12 -16 9 -21z m2350 -88 c7 -11 -14 -20 -31 -13 -7 2 -10 8 -7
13 7 12 31 12 38 0z m-54 -176 c0 -5 -5 -3 -10 5 -5 8 -10 20 -10 25 0 6 5 3
10 -5 5 -8 10 -19 10 -25z m-1974 -22 c-3 -21 -6 -66 -6 -100 l0 -62 -52 -10
c-29 -6 -78 -12 -108 -13 l-55 -3 0 60 c-1 33 2 76 5 95 5 34 5 34 90 51 132
26 134 26 126 -18z m2034 -154 c0 -6 -4 -7 -10 -4 -5 3 -10 11 -10 16 0 6 5 7
10 4 6 -3 10 -11 10 -16z m100 -13 c0 -2 3 -11 6 -20 8 -21 -63 -51 -82 -35
-23 19 -16 35 19 47 36 11 57 14 57 8z m160 -400 c0 -18 -4 -21 -84 -51 -63
-24 -66 -24 -66 -6 0 16 20 29 62 40 4 1 20 8 35 16 36 19 53 19 53 1z m-2743
-135 c30 -19 51 -65 44 -101 -4 -22 -9 -24 -25 -11 -9 7 -24 10 -37 6 -17 -6
-19 -9 -8 -16 10 -6 11 -9 2 -9 -7 0 -13 -7 -13 -16 0 -8 -5 -12 -10 -9 -6 4
-7 11 -4 17 4 6 3 8 -3 5 -5 -3 -22 5 -38 19 -34 29 -39 30 -32 4 6 -25 -1
-26 -19 -2 -13 16 -13 16 -14 -1 0 -23 -24 -17 -28 7 -5 25 24 82 55 105 33
26 88 27 130 2z m983 -184 c0 -6 -14 3 -30 21 -17 18 -30 38 -30 45 0 6 14 -3
30 -21 17 -18 30 -38 30 -45z m-1072 22 c15 -12 20 -19 12 -15 -8 3 -23 9 -32
12 -10 4 -18 10 -18 15 0 14 10 11 38 -12z m82 -20 c0 -6 -4 -7 -10 -4 -5 3
-10 11 -10 16 0 6 5 7 10 4 6 -3 10 -11 10 -16z m2761 -86 c13 -16 12 -17 -3
-4 -10 7 -18 15 -18 17 0 8 8 3 21 -13z m-1208 -42 c6 -24 -2 -37 -31 -45 -30
-10 -41 18 -17 44 23 25 41 25 48 1z m-88 -61 c-3 -5 -11 -10 -16 -10 -6 0 -7
5 -4 10 3 6 11 10 16 10 6 0 7 -4 4 -10z m673 -157 c-10 -2 -28 -2 -40 0 -13
2 -5 4 17 4 22 1 32 -1 23 -4z m-1531 -1405 c-3 -7 -5 -2 -5 12 0 14 2 19 5
13 2 -7 2 -19 0 -25z"/>
<path d="M4057 7121 c-23 -22 -53 -59 -65 -83 l-24 -43 29 31 c53 59 114 134
108 134 -3 0 -25 -18 -48 -39z"/>
<path d="M3917 7107 c-9 -23 -17 -52 -17 -65 0 -23 -14 -30 -25 -12 -7 11 -80
60 -89 60 -3 0 17 -21 44 -46 28 -26 50 -51 50 -55 0 -5 -35 -9 -77 -10 -43 0
-87 -4 -97 -8 -18 -7 -68 -109 -120 -241 -11 -31 -42 -90 -68 -132 -51 -80
-64 -118 -24 -71 28 34 116 183 116 197 0 18 81 180 108 215 l25 34 98 -6 98
-5 31 85 c17 47 29 91 27 97 -2 6 -17 -8 -33 -31 -36 -52 -45 -54 -32 -7 13
50 6 51 -15 1z"/>
<path d="M4302 7140 c-89 -8 -97 -10 -164 -55 -45 -30 -67 -50 -61 -56 11 -11
47 0 168 55 44 20 94 36 112 36 17 0 38 3 47 6 19 7 21 25 4 23 -7 -1 -55 -5
-106 -9z"/>
<path d="M4572 7073 c57 -64 130 -172 186 -277 174 -324 219 -420 258 -560 14
-50 30 -95 36 -101 7 -7 8 -4 5 10 -3 11 -15 58 -26 105 -33 143 -90 295 -147
397 -103 185 -305 463 -336 463 -6 0 5 -17 24 -37z"/>
<path d="M4745 6991 c17 -20 53 -60 81 -91 28 -30 68 -73 88 -95 21 -23 33
-30 27 -18 -6 12 -60 71 -119 131 -59 60 -93 92 -77 73z"/>
<path d="M4981 7026 c40 -41 215 -184 219 -180 3 3 -9 18 -26 32 -17 15 -63
55 -103 90 -39 34 -77 62 -83 62 -6 0 -9 -2 -7 -4z"/>
<path d="M4850 6965 c0 -6 93 -146 150 -227 19 -26 35 -46 38 -44 4 5 -177
276 -184 276 -2 0 -4 -2 -4 -5z"/>
<path d="M4036 6928 c4 -7 31 -47 59 -88 29 -41 87 -133 130 -203 42 -70 80
-126 82 -123 6 6 -183 320 -230 383 -29 38 -59 61 -41 31z"/>
<path d="M3455 6879 c-50 -37 -68 -56 -40 -40 23 12 93 70 85 70 -3 0 -23 -13
-45 -30z"/>
<path d="M5201 6768 c54 -72 175 -224 201 -252 4 -6 8 -7 8 -4 0 7 -137 191
-205 275 -73 90 -76 76 -4 -19z"/>
<path d="M4389 6700 c75 -177 184 -417 192 -425 13 -12 4 10 -100 247 -46 103
-89 195 -97 205 -8 11 -7 0 5 -27z"/>
<path d="M4596 6641 c7 -39 33 -104 33 -81 0 8 -9 38 -20 65 -15 39 -17 42
-13 16z"/>
<path d="M4630 6530 c0 -23 44 -144 47 -133 3 7 -5 42 -17 78 -20 61 -30 79
-30 55z"/>
<path d="M4701 6524 c0 -11 3 -14 6 -6 3 7 2 16 -1 19 -3 4 -6 -2 -5 -13z"/>
<path d="M5125 6513 c4 -10 13 -38 22 -63 56 -166 142 -384 149 -377 6 6 -26
102 -82 244 -24 62 -44 117 -44 123 0 14 -39 90 -46 90 -3 0 -3 -8 1 -17z"/>
<path d="M4320 6480 c6 -11 13 -20 16 -20 2 0 0 9 -6 20 -6 11 -13 20 -16 20
-2 0 0 -9 6 -20z"/>
<path d="M4711 6479 c0 -13 4 -33 9 -44 7 -14 8 -8 3 20 -7 46 -13 59 -12 24z"/>
<path d="M3442 6418 c-7 -26 -12 -66 -11 -90 1 -36 3 -30 15 36 16 90 14 124
-4 54z"/>
<path d="M4721 6394 c0 -11 3 -14 6 -6 3 7 2 16 -1 19 -3 4 -6 -2 -5 -13z"/>
<path d="M3560 6365 c0 -14 54 -157 145 -380 43 -104 88 -218 100 -251 27 -72
54 -125 55 -106 0 7 -18 54 -39 105 -36 85 -67 164 -187 474 -43 113 -73 176
-74 158z"/>
<path d="M3840 6351 c0 -115 158 -833 191 -866 15 -15 11 9 -11 67 -26 73 -69
240 -76 302 -3 28 -1 92 6 141 6 50 14 118 17 153 3 34 10 62 15 62 23 0 111
-251 90 -258 -6 -2 0 -14 13 -26 13 -13 31 -49 40 -80 9 -30 21 -58 26 -61 16
-10 10 12 -32 122 -23 60 -63 179 -88 266 -25 87 -50 159 -56 160 -5 1 -11
-23 -12 -53 -3 -60 -21 -238 -30 -283 -3 -16 -9 -25 -13 -20 -9 9 -32 126 -56
283 -16 104 -24 135 -24 91z"/>
<path d="M4684 6355 c64 -254 107 -457 120 -565 10 -74 20 -148 23 -163 4 -24
2 -28 -13 -25 -13 2 -21 17 -27 46 -4 23 -13 42 -19 42 -6 0 -7 -10 -3 -27 14
-51 13 -53 -23 -53 -18 0 -41 50 -99 215 -14 38 -31 81 -39 95 l-15 25 6 -32
7 -33 -56 0 -56 0 0 83 c0 45 -5 102 -11 126 -5 24 -8 46 -5 48 2 2 23 -34 47
-81 24 -47 47 -86 51 -86 7 0 -37 116 -51 135 -4 6 -20 40 -36 78 -28 66 -55
105 -55 76 1 -8 7 -43 15 -79 9 -36 18 -138 22 -227 5 -136 4 -163 -8 -163
-28 0 -37 16 -49 80 -15 82 -34 116 -25 45 3 -27 9 -65 12 -84 l6 -34 -42 7
c-25 4 -41 2 -41 -4 0 -11 3 -12 40 -15 14 -2 47 -6 73 -10 44 -7 49 -6 54 14
4 14 13 21 31 21 29 0 20 15 -13 22 -18 4 -17 6 8 16 36 15 77 15 77 0 0 -6
-19 -28 -41 -49 -29 -27 -39 -43 -35 -55 5 -14 1 -16 -31 -10 -21 3 -49 9 -62
13 -15 4 -22 2 -18 -4 3 -5 31 -16 61 -23 54 -13 109 -50 74 -50 -9 0 -35 7
-58 15 -23 8 -50 15 -58 15 -30 0 2 -16 68 -35 36 -10 69 -22 74 -27 19 -16
-2 -18 -44 -3 -55 20 -73 19 -35 -2 36 -20 105 -34 105 -21 0 5 -14 36 -31 70
-35 69 -32 81 27 131 l33 28 16 -38 c9 -21 24 -63 35 -94 31 -97 47 -119 81
-119 52 0 66 -14 75 -77 l8 -58 8 80 c8 80 -5 207 -37 365 -7 36 -21 124 -30
195 -10 72 -22 137 -27 145 -6 10 -7 1 -3 -25 l5 -40 -13 30 c-8 17 -20 55
-27 85 -7 30 -17 62 -22 70 -7 12 -8 10 -4 -5z"/>
<path d="M3121 6314 c0 -11 3 -14 6 -6 3 7 2 16 -1 19 -3 4 -6 -2 -5 -13z"/>
<path d="M3050 6300 c0 -28 47 -251 55 -258 4 -4 5 4 2 18 -3 14 -13 69 -22
124 -14 90 -34 157 -35 116z"/>
<path d="M4051 6304 c-1 -5 10 -41 23 -80 14 -38 25 -64 25 -58 1 5 -10 41
-23 80 -14 38 -25 64 -25 58z"/>
<path d="M3466 6218 c3 -13 23 -57 44 -98 37 -75 44 -103 82 -360 10 -65 14
-76 16 -48 2 28 11 43 32 58 l29 21 17 -26 c15 -24 15 -28 -5 -74 -30 -71 -26
-97 5 -31 l26 55 33 -65 c19 -36 34 -61 35 -56 0 13 -141 298 -146 294 -2 -2
2 -20 8 -41 9 -28 8 -40 -2 -52 -21 -25 -28 -18 -35 36 -5 35 -3 59 6 75 12
23 6 38 -66 179 -44 85 -81 155 -83 155 -2 0 0 -10 4 -22z"/>
<path d="M5300 6226 c0 -13 111 -238 115 -234 6 6 -101 238 -109 238 -3 0 -6
-2 -6 -4z"/>
<path d="M4321 6194 c0 -11 3 -14 6 -6 3 7 2 16 -1 19 -3 4 -6 -2 -5 -13z"/>
<path d="M4666 6180 c4 -19 13 -50 20 -70 l14 -35 -6 35 c-4 19 -13 50 -20 70
l-14 35 6 -35z"/>
<path d="M3311 6164 c0 -11 3 -14 6 -6 3 7 2 16 -1 19 -3 4 -6 -2 -5 -13z"/>
<path d="M4175 6130 c3 -14 18 -89 35 -168 39 -184 39 -182 -5 -182 -19 0 -35
-4 -35 -10 0 -5 23 -10 50 -10 43 0 50 3 50 19 0 11 6 22 13 24 7 3 5 6 -5 6
-11 1 -19 13 -24 36 -3 20 -4 38 -2 41 10 10 36 -8 47 -33 6 -14 14 -24 16
-21 5 5 -78 198 -118 273 -16 30 -25 40 -22 25z m82 -217 c-10 -10 -16 0 -22
38 l-6 34 17 -32 c10 -18 14 -36 11 -40z"/>
<path d="M3321 6130 c0 -8 4 -22 9 -30 12 -18 12 -2 0 25 -6 13 -9 15 -9 5z"/>
<path d="M4341 6124 c0 -11 3 -14 6 -6 3 7 2 16 -1 19 -3 4 -6 -2 -5 -13z"/>
<path d="M3142 6100 c0 -14 3 -45 7 -70 l8 -45 1 40 c0 22 -4 54 -8 70 -7 27
-8 28 -8 5z"/>
<path d="M4256 6107 c3 -10 9 -15 12 -12 3 3 0 11 -7 18 -10 9 -11 8 -5 -6z"/>
<path d="M4395 6080 c10 -83 38 -220 44 -220 10 0 -15 153 -34 210 -13 41 -14
42 -10 10z"/>
<path d="M3422 6080 c0 -14 2 -19 5 -12 2 6 2 18 0 25 -3 6 -5 1 -5 -13z"/>
<path d="M3341 6064 c0 -11 3 -14 6 -6 3 7 2 16 -1 19 -3 4 -6 -2 -5 -13z"/>
<path d="M4273 6059 c3 -9 15 -47 26 -85 20 -67 41 -111 41 -88 0 16 -47 151
-60 171 -9 14 -10 14 -7 2z"/>
<path d="M4655 6050 c51 -175 118 -361 109 -305 -5 40 -29 115 -78 249 -24 67
-46 105 -31 56z"/>
<path d="M4701 6064 c-2 -16 70 -267 81 -284 18 -28 -1 53 -41 175 -22 66 -40
115 -40 109z"/>
<path d="M4361 6050 c0 -8 4 -24 9 -35 l9 -20 0 20 c0 11 -4 27 -9 35 -9 13
-10 13 -9 0z"/>
<path d="M3432 6030 c0 -14 2 -19 5 -12 2 6 2 18 0 25 -3 6 -5 1 -5 -13z"/>
<path d="M4903 5985 c0 -27 2 -38 4 -22 2 15 2 37 0 50 -2 12 -4 0 -4 -28z"/>
<path d="M5103 5995 c0 -22 2 -30 4 -17 2 12 2 30 0 40 -3 9 -5 -1 -4 -23z"/>
<path d="M3440 5998 c0 -21 33 -176 41 -188 14 -24 11 2 -12 97 -18 76 -29
110 -29 91z"/>
<path d="M5271 5974 c0 -11 3 -14 6 -6 3 7 2 16 -1 19 -3 4 -6 -2 -5 -13z"/>
<path d="M3482 5960 c0 -14 2 -19 5 -12 2 6 2 18 0 25 -3 6 -5 1 -5 -13z"/>
<path d="M3980 5972 c0 -5 7 -17 15 -28 13 -17 14 -17 15 -2 0 12 6 16 18 12
9 -3 6 2 -8 10 -28 17 -40 20 -40 8z"/>
<path d="M3333 5925 c0 -27 2 -38 4 -22 2 15 2 37 0 50 -2 12 -4 0 -4 -28z"/>
<path d="M3370 5915 c0 -27 -5 -81 -11 -120 -6 -38 -10 -105 -9 -147 1 -62 -2
-78 -13 -78 -10 0 -18 23 -27 75 -7 42 -17 78 -21 81 -8 5 -6 -37 7 -133 3
-25 1 -43 -5 -43 -5 0 -16 -3 -24 -6 -12 -4 -16 10 -22 78 -3 46 -8 107 -11
137 -2 30 -6 56 -7 58 -9 8 -5 -242 4 -265 8 -22 6 -29 -13 -43 -12 -10 -25
-16 -29 -13 -3 2 -9 36 -13 76 -9 95 -37 250 -44 243 -3 -3 1 -49 8 -103 7
-54 11 -105 8 -113 -2 -7 -21 54 -42 136 -21 83 -44 164 -52 180 -15 33 -16
35 25 -125 16 -63 37 -153 46 -200 28 -143 86 -374 96 -384 15 -16 11 17 -17
137 l-25 112 21 17 c31 25 38 23 45 -14 22 -116 49 -218 56 -211 4 4 2 33 -6
63 -16 69 -34 184 -29 189 2 2 14 -19 26 -47 13 -28 27 -52 32 -52 7 0 6 18
-11 103 -6 28 -7 28 64 31 23 1 33 -50 21 -115 -5 -28 -7 -53 -4 -56 5 -6 90
67 206 177 74 71 31 40 -131 -91 -55 -45 -75 -45 -41 1 25 34 29 48 7 30 -12
-10 -15 -10 -15 2 0 8 3 18 6 21 4 4 8 20 9 37 2 26 1 28 -16 19 -34 -18 -43
2 -13 28 24 20 25 22 6 13 -43 -21 -44 -4 -2 24 40 26 43 27 37 7 -3 -12 0
-19 7 -18 6 1 10 -6 10 -15 -1 -10 2 -15 7 -12 13 8 11 -20 -3 -34 -7 -7 -9
-12 -5 -12 3 0 27 20 53 45 25 25 57 48 70 51 31 8 31 23 0 17 -22 -5 -26 0
-41 54 -21 77 -23 82 -24 57 -1 -11 6 -43 14 -70 19 -64 20 -61 -14 -79 l-29
-15 -16 48 c-8 26 -29 100 -47 164 -17 65 -37 125 -45 135 -12 16 -13 12 -14
-32z m51 -137 c28 -111 27 -115 -40 -141 -6 -3 -1 174 6 201 8 32 12 24 34
-60z"/>
<path d="M3171 5907 c-2 -38 21 -213 30 -227 7 -10 8 7 4 50 -8 73 -33 205
-34 177z"/>
<path d="M3491 5895 c0 -16 7 -48 14 -70 l14 -40 -5 49 c-3 27 -9 58 -14 70
-8 18 -9 17 -9 -9z"/>
<path d="M3011 5867 c-1 -4 11 -54 25 -110 15 -56 34 -136 44 -177 52 -215 79
-304 80 -255 0 18 -16 80 -83 335 -29 106 -64 219 -66 207z"/>
<path d="M5493 5833 c2 -5 12 -26 21 -48 42 -94 143 -282 157 -290 19 -12 8
18 -35 93 -24 42 -64 116 -90 165 -26 48 -49 87 -52 87 -3 0 -3 -3 -1 -7z"/>
<path d="M3282 5810 c0 -14 2 -19 5 -12 2 6 2 18 0 25 -3 6 -5 1 -5 -13z"/>
<path d="M4996 5783 c-11 -61 -17 -208 -7 -192 11 16 27 219 18 219 -3 0 -8
-12 -11 -27z"/>
<path d="M3856 5763 c3 -16 15 -57 26 -93 11 -36 33 -112 50 -170 16 -57 34
-110 40 -117 13 -15 67 -17 88 -2 13 9 13 10 0 8 -40 -4 -80 2 -80 13 0 18
-120 388 -126 388 -2 0 -2 -12 2 -27z"/>
<path d="M4148 5748 c33 -35 98 -64 122 -56 7 2 -9 12 -36 22 -27 10 -65 30
-84 44 l-35 25 33 -35z"/>
<path d="M3910 5750 c0 -23 90 -334 99 -343 19 -19 13 17 -18 115 -16 51 -39
126 -51 166 -19 65 -30 88 -30 62z"/>
<path d="M4917 5580 c-6 -154 6 -213 16 -84 9 98 8 184 -2 209 -5 11 -10 -41
-14 -125z"/>
<path d="M4378 5663 c6 -2 18 -2 25 0 6 3 1 5 -13 5 -14 0 -19 -2 -12 -5z"/>
<path d="M4236 5576 c-14 -19 -26 -38 -26 -42 0 -10 50 37 61 59 17 30 -7 19
-35 -17z"/>
<path d="M4377 5599 c-58 -14 -99 -38 -139 -83 -41 -45 -48 -62 -19 -46 31 16
33 13 26 -42 l-6 -53 20 30 c11 16 25 41 31 56 7 15 26 31 48 40 20 7 41 16
46 18 5 2 6 -4 1 -15 -20 -50 -24 -104 -9 -153 17 -59 36 -78 23 -24 -4 21 -6
39 -4 41 2 3 26 6 52 8 38 4 43 2 25 -6 -19 -8 -21 -13 -12 -30 13 -25 68 -60
93 -60 28 0 79 61 74 88 -4 19 0 22 24 22 26 0 29 -4 29 -31 0 -17 -5 -39 -11
-51 -6 -11 -8 -22 -5 -25 10 -11 36 66 36 107 0 24 5 40 12 40 6 0 33 -14 60
-31 27 -17 51 -30 53 -27 2 2 -14 25 -36 50 -25 30 -35 48 -27 50 30 10 -139
97 -237 123 -65 17 -91 17 -148 4z m201 -216 c-16 -2 -40 -2 -55 0 -16 2 -3 4
27 4 30 0 43 -2 28 -4z"/>
<path d="M4640 5607 c0 -3 12 -12 26 -22 15 -9 23 -12 20 -6 -7 11 -46 35 -46
28z"/>
<path d="M4184 5561 c-15 -23 -25 -44 -22 -46 3 -3 17 13 32 36 15 22 25 43
22 46 -2 3 -17 -14 -32 -36z"/>
<path d="M5259 5580 c-2 -35 -1 -49 6 -104 9 -70 24 -38 18 38 -6 67 -21 110
-24 66z"/>
<path d="M3469 5503 c-13 -16 -12 -17 4 -4 9 7 17 15 17 17 0 8 -8 3 -21 -13z"/>
<path d="M2588 5493 c7 -3 16 -2 19 1 4 3 -2 6 -13 5 -11 0 -14 -3 -6 -6z"/>
<path d="M3770 5472 c19 -16 37 -28 40 -25 5 5 -23 28 -55 45 -11 6 -4 -3 15
-20z"/>
<path d="M3835 5463 c25 -62 49 -88 76 -85 13 2 29 8 34 14 7 7 -1 9 -23 6
-31 -4 -35 -2 -57 43 -30 59 -52 75 -30 22z"/>
<path d="M2665 5474 c28 -7 57 -13 65 -13 8 0 -7 7 -35 15 -27 7 -57 13 -65
13 -8 0 8 -7 35 -15z"/>
<path d="M2758 5453 c7 -3 16 -2 19 1 4 3 -2 6 -13 5 -11 0 -14 -3 -6 -6z"/>
<path d="M2808 5443 c6 -2 18 -2 25 0 6 3 1 5 -13 5 -14 0 -19 -2 -12 -5z"/>
<path d="M2868 5433 c7 -3 16 -2 19 1 4 3 -2 6 -13 5 -11 0 -14 -3 -6 -6z"/>
<path d="M4072 5416 c6 -14 15 -26 20 -26 10 0 -7 36 -22 45 -6 4 -5 -5 2 -19z"/>
<path d="M2935 5420 c17 -4 39 -8 50 -8 16 0 15 2 -5 8 -14 4 -36 8 -50 8 -22
0 -22 -1 5 -8z"/>
<path d="M4830 5420 c0 -5 7 -10 15 -10 9 0 20 -11 25 -25 10 -27 20 -33 20
-12 0 16 -37 57 -50 57 -6 0 -10 -4 -10 -10z"/>
<path d="M5300 5275 c0 -28 4 -44 10 -40 6 3 10 21 10 40 0 19 -4 37 -10 40
-6 4 -10 -12 -10 -40z"/>
<path d="M4749 5253 l-24 -28 28 24 c25 23 32 31 24 31 -2 0 -14 -12 -28 -27z"/>
<path d="M4602 5236 c-32 -18 -37 -25 -13 -19 11 3 26 11 32 19 13 16 12 16
-19 0z"/>
<path d="M3621 5231 c-32 -20 17 -61 73 -61 28 0 61 34 53 55 -7 17 -101 22
-126 6z"/>
<path d="M4631 5191 c-14 -10 -19 -21 -13 -24 5 -4 17 4 26 18 20 30 18 30
-13 6z"/>
<path d="M3801 5183 c0 -6 -4 -20 -7 -30 -5 -14 -4 -15 5 -7 7 7 11 20 8 30
-3 11 -5 14 -6 7z"/>
<path d="M4423 5145 c4 -10 95 -15 135 -7 48 9 18 19 -58 18 -48 -1 -79 -5
-77 -11z"/>
<path d="M5106 5141 c-4 -5 3 -7 14 -4 23 6 26 13 6 13 -8 0 -17 -4 -20 -9z"/>
<path d="M3505 5090 c16 -16 36 -30 45 -30 9 0 21 -5 28 -12 25 -25 76 -34
136 -23 33 5 61 15 63 21 3 9 -15 8 -62 -2 -82 -17 -103 -12 -159 37 -55 48
-95 55 -51 9z"/>
<path d="M3877 5013 c-13 -12 -7 -43 8 -43 9 0 15 9 15 25 0 24 -10 32 -23 18z"/>
<path d="M3880 4906 c0 -8 92 -67 97 -62 9 9 -8 26 -47 46 -40 20 -50 23 -50
16z"/>
<path d="M4075 4714 c-27 -8 -67 -13 -87 -10 -21 2 -38 1 -38 -2 0 -18 75 -65
102 -64 44 1 48 12 5 12 -25 0 -37 5 -37 14 0 14 106 46 152 46 19 0 20 2 8
10 -20 13 -44 11 -105 -6z"/>
<path d="M4274 4659 c0 -12 7 -19 18 -19 10 0 18 4 18 10 0 5 -8 14 -18 19
-14 7 -18 6 -18 -10z"/>
<path d="M4070 4570 c0 -5 5 -10 10 -10 6 0 10 5 10 10 0 6 -4 10 -10 10 -5 0
-10 -4 -10 -10z"/>
<path d="M4806 4545 c-9 -26 -7 -32 5 -12 6 10 9 21 6 23 -2 3 -7 -2 -11 -11z"/>
<path d="M4790 4501 c0 -6 -18 -15 -41 -21 -23 -6 -39 -14 -36 -16 7 -7 85 15
92 26 3 5 1 11 -5 15 -5 3 -10 2 -10 -4z"/>
<path d="M4678 4453 c7 -3 16 -2 19 1 4 3 -2 6 -13 5 -11 0 -14 -3 -6 -6z"/>
<path d="M4515 4335 c-40 -19 -16 -19 26 0 19 8 27 14 19 14 -8 0 -28 -7 -45
-14z"/>
<path d="M4440 4310 c-13 -9 -13 -10 0 -10 8 0 22 5 30 10 13 9 13 10 0 10 -8
0 -22 -5 -30 -10z"/>
<path d="M4310 4259 c0 -5 5 -7 10 -4 6 3 10 8 10 11 0 2 -4 4 -10 4 -5 0 -10
-5 -10 -11z"/>
<path d="M4280 4178 c0 -34 3 -58 8 -54 4 4 7 32 7 62 0 30 -3 54 -7 54 -5 0
-8 -28 -8 -62z"/>
<path d="M4281 4004 c0 -11 3 -14 6 -6 3 7 2 16 -1 19 -3 4 -6 -2 -5 -13z"/>
<path d="M2943 6493 c15 -2 37 -2 50 0 12 2 0 4 -28 4 -27 0 -38 -2 -22 -4z"/>
<path d="M2808 6483 c17 -2 47 -2 65 0 17 2 3 4 -33 4 -36 0 -50 -2 -32 -4z"/>
<path d="M2703 6473 c15 -2 37 -2 50 0 12 2 0 4 -28 4 -27 0 -38 -2 -22 -4z"/>
<path d="M2618 6463 c12 -2 30 -2 40 0 9 3 -1 5 -23 4 -22 0 -30 -2 -17 -4z"/>
<path d="M2553 6453 c9 -2 23 -2 30 0 6 3 -1 5 -18 5 -16 0 -22 -2 -12 -5z"/>
<path d="M2488 6443 c6 -2 18 -2 25 0 6 3 1 5 -13 5 -14 0 -19 -2 -12 -5z"/>
<path d="M2433 6433 c9 -2 23 -2 30 0 6 3 -1 5 -18 5 -16 0 -22 -2 -12 -5z"/>
<path d="M2378 6423 c7 -3 16 -2 19 1 4 3 -2 6 -13 5 -11 0 -14 -3 -6 -6z"/>
<path d="M2328 6413 c7 -3 16 -2 19 1 4 3 -2 6 -13 5 -11 0 -14 -3 -6 -6z"/>
<path d="M2268 6403 c7 -3 16 -2 19 1 4 3 -2 6 -13 5 -11 0 -14 -3 -6 -6z"/>
<path d="M2218 6393 c7 -3 16 -2 19 1 4 3 -2 6 -13 5 -11 0 -14 -3 -6 -6z"/>
<path d="M2863 6373 c9 -2 23 -2 30 0 6 3 -1 5 -18 5 -16 0 -22 -2 -12 -5z"/>
<path d="M2768 6363 c12 -2 30 -2 40 0 9 3 -1 5 -23 4 -22 0 -30 -2 -17 -4z"/>
<path d="M2683 6353 c9 -2 23 -2 30 0 6 3 -1 5 -18 5 -16 0 -22 -2 -12 -5z"/>
<path d="M2613 6343 c9 -2 25 -2 35 0 9 3 1 5 -18 5 -19 0 -27 -2 -17 -5z"/>
<path d="M2553 6333 c9 -2 23 -2 30 0 6 3 -1 5 -18 5 -16 0 -22 -2 -12 -5z"/>
<path d="M2493 6323 c9 -2 23 -2 30 0 6 3 -1 5 -18 5 -16 0 -22 -2 -12 -5z"/>
<path d="M2448 6313 c7 -3 16 -2 19 1 4 3 -2 6 -13 5 -11 0 -14 -3 -6 -6z"/>
<path d="M2388 6303 c6 -2 18 -2 25 0 6 3 1 5 -13 5 -14 0 -19 -2 -12 -5z"/>
<path d="M5743 5323 c9 -2 25 -2 35 0 9 3 1 5 -18 5 -19 0 -27 -2 -17 -5z"/>
<path d="M5833 5313 c15 -2 39 -2 55 0 15 2 2 4 -28 4 -30 0 -43 -2 -27 -4z"/>
<path d="M5965 5300 c73 -12 117 -12 110 0 -3 6 -41 9 -83 9 -75 -2 -76 -2
-27 -9z"/>
<path d="M5543 4928 c-19 -25 -21 -46 -7 -67 8 -11 20 -21 27 -21 8 0 8 3 -1
12 -7 7 -12 24 -12 38 0 14 5 31 12 38 8 8 8 12 1 12 -6 0 -15 -6 -20 -12z"/>
<path d="M5636 4924 c-23 -22 -20 -40 10 -63 38 -30 54 -26 22 4 -27 25 -28
50 -4 67 8 5 7 8 -1 8 -6 0 -19 -7 -27 -16z"/>
<path d="M3350 4951 c0 -5 7 -14 15 -21 22 -18 18 -44 -11 -79 -14 -17 -23
-31 -19 -31 11 0 32 24 49 58 9 18 21 32 26 32 10 0 32 -35 26 -41 -2 -2 6
-13 17 -24 19 -20 19 -20 5 10 -9 17 -18 43 -22 59 -6 23 -10 26 -16 16 -7
-12 -13 -11 -33 8 -25 23 -37 28 -37 13z"/>
<path d="M3267 4943 c-10 -10 -8 -23 4 -23 5 0 8 4 5 9 -4 5 0 12 6 14 7 3 8
6 2 6 -6 1 -14 -2 -17 -6z"/>
<path d="M3178 4923 c7 -3 16 -2 19 1 4 3 -2 6 -13 5 -11 0 -14 -3 -6 -6z"/>
<path d="M3287 4884 c-8 -8 13 -64 24 -64 5 0 9 7 9 15 0 8 -4 15 -10 15 -14
0 -12 27 3 33 8 4 6 6 -4 6 -9 1 -18 -2 -22 -5z"/>
<path d="M3252 4840 c7 -10 14 -18 15 -16 6 6 -9 36 -18 36 -5 0 -4 -9 3 -20z"/>
<path d="M3180 4815 c0 -8 5 -15 10 -15 6 0 10 7 10 15 0 8 -4 15 -10 15 -5 0
-10 -7 -10 -15z"/>
<path d="M3270 4800 c0 -5 5 -10 10 -10 6 0 10 5 10 10 0 6 -4 10 -10 10 -5 0
-10 -4 -10 -10z"/>
<path d="M3310 4790 c-8 -5 -11 -12 -8 -16 10 -9 38 3 38 16 0 12 -10 13 -30
0z"/>
<path d="M3217 4772 c-17 -7 -17 -9 -4 -20 11 -9 17 -10 22 -2 4 6 16 8 27 4
15 -4 19 -2 16 7 -5 16 -35 21 -61 11z"/>
<path d="M3271 4731 c-10 -6 -10 -10 -1 -16 7 -4 19 0 28 9 14 13 14 16 2 16
-8 0 -21 -4 -29 -9z"/>
<path d="M3250 4685 c12 -15 30 -12 30 6 0 5 -10 9 -21 9 -18 0 -19 -2 -9 -15z"/>
<path d="M2980 4652 c0 -12 30 -20 48 -15 6 3 12 10 12 16 0 8 -3 8 -12 -1 -7
-7 -17 -8 -30 -1 -10 6 -18 6 -18 1z"/>
<path d="M3146 4653 c-10 -10 4 -22 20 -16 10 4 17 -2 21 -16 7 -27 39 -27 53
-1 6 11 7 20 3 20 -4 0 -1 5 7 10 18 11 3 12 -25 1 -11 -5 -32 -5 -47 0 -14 4
-29 5 -32 2z"/>
<path d="M3108 4643 c7 -3 16 -2 19 1 4 3 -2 6 -13 5 -11 0 -14 -3 -6 -6z"/>
<path d="M3147 4614 c-8 -8 1 -24 14 -24 5 0 9 7 9 15 0 15 -12 20 -23 9z"/>
<path d="M3025 4600 c-3 -5 -1 -10 4 -10 6 0 11 5 11 10 0 6 -2 10 -4 10 -3 0
-8 -4 -11 -10z"/>
<path d="M3066 4565 c-7 -20 21 -32 37 -16 8 8 7 11 -7 11 -9 0 -14 5 -11 10
3 6 2 10 -3 10 -6 0 -13 -7 -16 -15z"/>
<path d="M3139 4555 c-9 -8 1 -45 12 -45 5 0 9 -9 9 -20 0 -11 5 -20 10 -20 6
0 10 4 10 9 0 5 8 7 18 4 16 -4 17 1 13 34 -3 21 -6 30 -9 21 -2 -10 -10 -18
-18 -18 -8 0 -17 0 -21 -1 -5 0 -10 9 -13 21 -3 12 -8 19 -11 15z"/>
<path d="M3045 4510 c3 -5 12 -10 20 -10 8 0 17 5 20 10 4 6 -5 10 -20 10 -15
0 -24 -4 -20 -10z"/>
<path d="M2971 4443 c26 -34 39 -45 39 -34 0 14 -32 51 -43 51 -5 0 -3 -8 4
-17z"/>
<path d="M2920 4410 c0 -13 18 -22 24 -11 3 5 -1 11 -9 15 -8 3 -15 1 -15 -4z"/>
<path d="M3046 4285 c4 -10 0 -15 -12 -15 -15 0 -16 -2 -5 -9 8 -5 19 -7 25
-5 17 7 17 44 1 44 -9 0 -12 -6 -9 -15z"/>
<path d="M3128 4293 c6 -2 18 -2 25 0 6 3 1 5 -13 5 -14 0 -19 -2 -12 -5z"/>
<path d="M2960 4275 c-20 -24 -4 -29 19 -6 14 14 17 21 7 21 -7 0 -19 -7 -26
-15z"/>
<path d="M2951 4204 c0 -11 3 -14 6 -6 3 7 2 16 -1 19 -3 4 -6 -2 -5 -13z"/>
<path d="M2871 4184 c0 -11 3 -14 6 -6 3 7 2 16 -1 19 -3 4 -6 -2 -5 -13z"/>
<path d="M2975 4170 c-3 -5 -2 -10 4 -10 5 0 13 5 16 10 3 6 2 10 -4 10 -5 0
-13 -4 -16 -10z"/>
<path d="M3060 4173 c-8 -4 -30 -20 -48 -37 -31 -30 -32 -31 -12 -44 11 -7 20
-9 19 -5 -4 21 3 31 24 37 13 3 29 17 35 31 12 25 9 28 -18 18z"/>
<path d="M2945 4081 c-7 -12 12 -24 25 -16 11 7 4 25 -10 25 -5 0 -11 -4 -15
-9z"/>
<path d="M2915 4050 c3 -5 8 -10 11 -10 2 0 4 5 4 10 0 6 -5 10 -11 10 -5 0
-7 -4 -4 -10z"/>
<path d="M2994 4034 c-4 -10 -9 -22 -11 -26 -2 -5 0 -8 5 -8 10 0 24 41 17 48
-3 3 -8 -4 -11 -14z"/>
<path d="M2950 3980 c0 -5 7 -10 15 -10 8 0 15 5 15 10 0 6 -7 10 -15 10 -8 0
-15 -4 -15 -10z"/>
<path d="M2945 3940 c-3 -5 -1 -10 4 -10 6 0 11 5 11 10 0 6 -2 10 -4 10 -3 0
-8 -4 -11 -10z"/>
<path d="M2971 3914 c0 -11 3 -14 6 -6 3 7 2 16 -1 19 -3 4 -6 -2 -5 -13z"/>
<path d="M2896 3885 c4 -8 10 -15 15 -15 4 0 6 7 3 15 -4 8 -10 15 -15 15 -4
0 -6 -7 -3 -15z"/>
<path d="M5904 5002 c6 -10 42 -9 52 1 4 4 -7 7 -25 7 -18 0 -30 -4 -27 -8z"/>
<path d="M3703 4406 c5 -14 39 -15 44 -1 1 6 -8 11 -22 11 -16 1 -24 -3 -22
-10z"/>
<path d="M3634 4376 c-10 -8 -15 -18 -11 -22 4 -4 15 0 24 9 22 21 12 31 -13
13z"/>
<path d="M3741 4370 c-1 -17 17 -40 31 -40 4 0 8 5 8 10 0 6 -6 10 -14 10 -8
0 -17 8 -19 18 -4 13 -5 13 -6 2z"/>
<path d="M3790 4340 c0 -5 5 -10 10 -10 6 0 10 5 10 10 0 6 -4 10 -10 10 -5 0
-10 -4 -10 -10z"/>
<path d="M3710 4330 c0 -5 4 -10 9 -10 6 0 13 5 16 10 3 6 -1 10 -9 10 -9 0
-16 -4 -16 -10z"/>
<path d="M4084 4281 c32 -17 64 -35 69 -40 14 -14 27 -14 27 0 0 5 -24 20 -52
33 -80 35 -111 40 -44 7z"/>
<path d="M4160 4190 c0 -11 5 -20 10 -20 6 0 10 9 10 20 0 11 -4 20 -10 20 -5
0 -10 -9 -10 -20z"/>
<path d="M4160 4120 c0 -18 4 -29 10 -25 6 3 10 15 10 25 0 10 -4 22 -10 25
-6 4 -10 -7 -10 -25z"/>
<path d="M4230 3854 c0 -6 7 -19 16 -30 14 -18 14 -18 3 6 -14 31 -19 36 -19
24z"/>
<path d="M4170 3766 c0 -3 9 -10 20 -16 11 -6 20 -8 20 -6 0 3 -9 10 -20 16
-11 6 -20 8 -20 6z"/>
<path d="M4040 2600 c0 -5 5 -10 10 -10 6 0 10 5 10 10 0 6 -4 10 -10 10 -5 0
-10 -4 -10 -10z"/>
<path d="M3245 7316 c-83 -20 -87 -23 -56 -29 62 -13 100 -8 141 19 22 15 40
28 40 30 0 8 -38 2 -125 -20z"/>
<path d="M2973 7183 c15 -2 37 -2 50 0 12 2 0 4 -28 4 -27 0 -38 -2 -22 -4z"/>
<path d="M3078 7173 c12 -2 30 -2 40 0 9 3 -1 5 -23 4 -22 0 -30 -2 -17 -4z"/>
<path d="M2813 7163 c15 -2 37 -2 50 0 12 2 0 4 -28 4 -27 0 -38 -2 -22 -4z"/>
<path d="M2121 6777 c22 -49 -5 -108 -76 -163 -11 -8 -1 -5 23 8 57 30 83 73
75 121 -3 20 -12 42 -20 49 -12 10 -12 8 -2 -15z"/>
<path d="M2035 6745 c-27 -83 -61 -117 -155 -155 -91 -36 -99 -41 -60 -34 63
11 141 45 177 77 43 38 68 90 54 115 -9 16 -10 15 -16 -3z"/>
<path d="M1983 6703 c-9 -16 -21 -35 -27 -43 -6 -8 1 -4 16 8 14 13 28 32 31
43 7 27 0 24 -20 -8z"/>
<path d="M1939 6673 c-13 -16 -12 -17 4 -4 9 7 17 15 17 17 0 8 -8 3 -21 -13z"/>
<path d="M6308 6427 c-30 -24 -46 -71 -29 -81 6 -4 11 -16 11 -26 0 -10 11
-27 25 -38 32 -26 32 -28 -7 -30 -72 -3 -95 -8 -131 -30 -67 -42 -88 -118 -42
-148 46 -30 128 -2 165 57 50 80 63 99 70 99 14 0 130 90 130 101 0 6 -9 13
-20 16 -11 3 -20 12 -20 19 0 8 -6 14 -12 14 -7 0 -24 16 -37 35 -28 42 -63
46 -103 12z m2 -48 c-7 -11 -14 -19 -16 -16 -7 7 7 37 17 37 6 0 5 -9 -1 -21z
m134 -44 c8 -21 -3 -44 -26 -56 -29 -15 -34 -3 -15 36 18 37 31 44 41 20z
m-99 -35 c3 -5 2 -10 -4 -10 -5 0 -13 5 -16 10 -3 6 -2 10 4 10 5 0 13 -4 16
-10z m-21 -76 c12 -32 -28 -71 -66 -66 -24 4 -27 8 -22 28 5 18 2 24 -10 24
-9 0 -16 5 -16 11 0 7 9 9 23 6 12 -4 29 -2 37 3 23 15 47 12 54 -6z"/>
<path d="M1383 6116 c-17 -14 -53 -59 -81 -100 -39 -56 -52 -83 -52 -111 0
-72 53 -140 154 -195 50 -27 50 -26 59 11 6 23 1 30 -42 57 -57 35 -99 100
-105 160 -5 47 28 109 84 155 22 19 30 31 23 38 -7 7 -20 2 -40 -15z"/>
<path d="M6651 6078 c-19 -99 -30 -203 -41 -382 l-12 -179 31 -25 c54 -41 73
-99 52 -154 -5 -13 -9 -26 -10 -31 -1 -13 -55 -59 -81 -69 -24 -9 -24 -10 -5
-20 11 -6 31 -21 45 -33 l25 -23 45 45 c24 24 40 44 35 43 -21 -4 -58 0 -52 6
10 10 361 -28 482 -52 20 -4 27 -3 20 4 -12 12 -214 46 -370 63 -60 6 -117 16
-125 20 -9 6 4 7 35 4 80 -9 367 -45 408 -51 25 -5 37 -3 37 5 0 15 -109 257
-156 346 -82 157 -290 480 -333 519 -19 17 -20 16 -30 -36z"/>
<path d="M1406 6073 c-59 -59 -77 -131 -48 -196 22 -48 69 -95 95 -94 23 0 22
10 -4 33 -57 51 -67 154 -23 220 16 24 20 33 9 24 -24 -20 -55 -88 -55 -123 0
-36 25 -95 53 -126 14 -15 17 -22 7 -19 -8 2 -30 26 -47 52 -51 75 -45 149 16
215 38 41 35 52 -3 14z"/>
<path d="M1480 5957 c0 -58 26 -114 69 -145 40 -29 40 -15 0 22 -35 34 -49 64
-49 109 0 18 -5 39 -10 47 -7 11 -10 2 -10 -33z"/>
<path d="M1489 5773 c-9 -27 -13 -101 -13 -249 l1 -210 -29 4 c-43 6 -74 -5
-93 -34 -51 -78 29 -208 117 -190 25 5 29 3 24 -10 -3 -9 -6 -31 -6 -50 0 -28
-4 -34 -20 -34 -47 0 -112 -53 -123 -101 -14 -57 50 -169 97 -169 20 0 20 -8
1 -55 -9 -20 -15 -44 -13 -54 3 -15 -49 -89 -55 -80 -30 42 -87 150 -87 165 0
26 -36 103 -61 130 -18 19 -18 22 -4 34 33 28 10 78 -44 95 -14 4 -30 23 -42
51 -22 48 -49 59 -49 20 0 -13 7 -37 15 -52 8 -16 15 -43 15 -60 0 -16 7 -39
15 -50 18 -24 19 -35 2 -28 -7 2 -25 -5 -40 -16 -20 -16 -27 -31 -28 -58 -1
-25 -3 -30 -6 -13 -8 39 6 70 38 87 23 11 28 19 20 27 -6 6 -11 25 -11 43 0
17 -9 53 -21 79 -20 44 -20 48 -4 65 23 26 50 11 65 -35 8 -26 22 -41 48 -53
49 -23 69 -64 48 -97 -14 -21 -14 -25 3 -47 29 -38 51 -85 51 -113 0 -20 27
-71 77 -144 9 -14 41 37 46 72 2 23 7 49 11 57 3 10 -6 22 -27 35 -46 29 -79
98 -74 155 4 37 12 51 47 82 22 20 54 40 71 43 24 5 29 12 29 36 0 24 -4 29
-24 29 -45 0 -76 19 -106 67 -35 55 -38 95 -10 140 19 32 36 40 94 45 l28 3
-1 130 c-1 71 -4 131 -6 133 -2 2 -41 12 -87 23 -121 27 -185 46 -220 64 -17
8 -36 15 -42 15 -10 0 -67 -112 -155 -302 -74 -159 -168 -441 -200 -599 -5
-24 -18 -88 -30 -143 -12 -54 -21 -104 -21 -112 0 -11 31 -14 163 -14 89 0
191 -5 226 -10 59 -8 67 -7 107 16 24 14 52 24 63 22 24 -4 27 4 11 41 -11 28
-13 28 -78 24 -80 -5 -110 8 -129 55 -8 19 -9 31 -3 27 5 -3 10 -12 10 -19 0
-30 41 -51 98 -50 32 1 64 4 73 8 13 6 23 -7 48 -53 l31 -61 -32 7 c-18 3 -35
7 -37 9 -2 2 -26 -8 -53 -22 -32 -16 -54 -35 -60 -52 l-10 -27 -215 4 c-148 2
-218 0 -226 -8 -8 -8 -7 -11 4 -11 110 -2 360 -21 382 -29 18 -7 27 -18 27
-32 0 -18 -4 -20 -27 -15 -16 3 -109 8 -208 10 -189 5 -187 3 12 -14 67 -6
141 -17 165 -25 39 -13 40 -14 8 -9 -33 5 -34 4 -16 -11 11 -8 24 -15 30 -15
5 0 7 -2 5 -5 -3 -2 -41 8 -84 22 -61 20 -108 27 -196 31 l-116 4 -6 -128 c-7
-123 -4 -371 4 -379 6 -5 111 20 134 33 11 6 72 36 135 66 63 31 126 65 139
75 21 16 22 21 11 42 l-12 24 22 -23 22 -24 -23 -16 c-13 -9 -40 -31 -59 -48
-23 -21 -72 -45 -135 -67 -55 -20 -95 -36 -88 -36 22 -1 177 51 267 90 50 21
92 36 94 34 6 -6 -216 -113 -243 -117 -11 -2 -26 -9 -34 -16 -8 -8 -23 -11
-34 -8 -23 6 -197 -34 -197 -45 0 -4 41 3 91 17 123 33 124 29 4 -11 -55 -19
-93 -34 -85 -34 9 -1 58 12 110 29 52 16 96 27 98 26 2 -2 -36 -18 -85 -35
-48 -17 -72 -28 -53 -25 19 4 94 29 165 57 72 27 183 70 248 95 l118 45 -7 41
c-3 23 -8 43 -10 45 -1 2 -19 -7 -38 -19 -20 -12 -36 -18 -36 -13 0 5 17 18
38 28 20 11 40 21 43 23 4 1 9 -19 13 -45 7 -57 45 -117 86 -138 82 -42 182
82 166 205 -6 45 -6 45 45 -44 55 -97 82 -181 124 -386 14 -69 41 -181 60
-249 25 -92 31 -128 23 -138 -16 -19 -21 -17 -90 35 -35 26 -93 63 -130 82
-38 19 -68 39 -68 45 0 5 -11 21 -25 35 -13 14 -35 38 -47 53 -16 20 -35 30
-65 34 -89 12 -128 -25 -97 -90 19 -39 98 -91 127 -83 11 3 29 0 40 -6 14 -7
27 -7 43 1 29 13 31 5 5 -23 -27 -31 -42 -82 -31 -110 15 -41 63 -67 109 -60
50 8 75 35 74 79 l-1 35 26 -20 c68 -50 65 -45 54 -94 -12 -59 8 -103 61 -131
30 -16 37 -24 32 -40 -3 -11 -8 -45 -11 -75 -10 -100 53 -179 123 -154 27 9
29 7 62 -56 18 -36 44 -101 57 -145 13 -44 37 -118 53 -165 37 -104 39 -126 8
-134 -13 -3 -36 -15 -50 -26 -24 -19 -25 -25 -20 -70 7 -64 -12 -68 -20 -5 -8
55 3 76 55 105 21 12 38 25 38 30 0 5 -16 53 -36 107 -19 54 -42 125 -50 158
-8 33 -29 87 -46 121 l-31 61 -42 -4 c-37 -5 -44 -2 -72 31 -32 36 -53 90 -53
137 0 26 -2 26 -85 33 -125 9 -325 42 -527 87 -192 42 -357 69 -363 60 -10
-17 136 -387 220 -559 81 -164 98 -192 110 -182 12 10 15 9 15 -9 0 -27 17
-27 25 -1 7 21 25 28 25 10 0 -5 -4 -10 -9 -10 -19 0 -20 -33 -1 -57 11 -15
18 -29 14 -32 -3 -3 -14 5 -25 18 -64 78 58 -117 155 -248 44 -60 44 -60 62
-39 30 32 60 40 98 24 19 -8 38 -22 44 -32 16 -28 35 -6 93 112 38 77 57 104
71 104 49 0 26 -90 -57 -215 -28 -44 -67 -107 -85 -140 l-33 -59 162 -159 c89
-86 166 -155 171 -152 6 4 10 21 10 38 0 18 7 61 15 97 18 79 45 262 45 310 1
31 16 50 142 180 78 80 139 137 135 127 -4 -11 -3 -16 3 -12 6 3 10 15 10 26
0 22 38 87 64 108 9 7 16 9 16 3 0 -5 -7 -15 -14 -22 -18 -14 -51 -98 -43
-106 3 -3 24 32 47 78 41 84 102 153 127 144 7 -3 13 -1 13 4 0 10 101 90 114
90 3 0 0 -12 -7 -28 -8 -15 -17 -38 -21 -52 -4 -14 10 7 31 47 25 46 55 86 88
114 76 65 89 75 83 64 -56 -105 -186 -409 -268 -625 -44 -117 -44 -207 -1
-354 18 -59 41 -148 52 -199 11 -50 31 -144 44 -207 14 -63 34 -144 45 -180
l20 -65 -3 49 c-2 45 0 50 28 66 50 27 197 87 255 104 43 12 78 34 150 95 94
78 96 80 165 215 66 128 132 233 141 224 2 -2 -1 -31 -6 -64 -5 -32 -14 -102
-20 -154 -8 -73 -17 -104 -37 -135 -42 -65 -182 -254 -244 -330 -31 -38 -75
-107 -98 -152 -43 -87 -56 -135 -19 -70 25 42 34 46 43 17 3 -11 13 -20 21
-20 8 0 12 -5 9 -10 -4 -6 -11 -7 -17 -4 -7 5 -8 2 -3 -6 4 -7 2 -16 -6 -21
-11 -7 -11 -9 3 -9 9 0 25 15 37 33 11 17 21 25 21 17 0 -9 -7 -26 -16 -38
-16 -23 -12 -42 9 -42 7 1 29 27 50 58 20 31 46 68 57 82 l21 25 -3 -100 -3
-99 40 -12 c60 -18 74 -17 68 5 -11 43 31 389 50 407 3 3 31 2 62 -1 42 -6 55
-11 51 -21 -4 -11 8 -14 58 -14 35 0 77 -3 93 -6 l30 -6 -4 -122 c-2 -67 -10
-158 -17 -201 l-12 -80 -35 3 c-19 1 -62 7 -97 13 -49 9 -66 16 -72 33 -8 19
-9 19 -9 -6 -1 -19 -6 -28 -18 -29 -55 -3 187 -49 257 -49 44 0 44 0 21 16
-20 15 -22 22 -17 73 3 31 8 99 11 151 14 270 10 263 148 258 85 -3 93 -1 89
14 -2 10 3 36 12 59 19 47 16 62 -4 24 -15 -29 -21 -30 -58 -11 -55 28 -95
108 -81 160 7 26 7 27 -10 12 -17 -15 -20 -14 -43 8 -15 13 -33 37 -42 55 -9
17 -21 31 -26 31 -16 0 -12 -15 14 -53 23 -33 23 -36 8 -50 -48 -42 -97 -48
-131 -16 -32 30 -19 69 66 188 2 3 14 -6 27 -18 l24 -22 6 27 c4 14 5 29 1 32
-3 3 -5 0 -5 -6 0 -21 -19 -13 -51 21 -30 31 -31 34 -26 97 6 64 46 195 72
236 9 15 33 25 77 34 95 19 90 27 -17 25 -85 -2 -98 -5 -120 -25 -27 -25 -27
-26 -44 8 -11 22 -9 27 30 63 51 47 28 55 -25 9 l-35 -31 -36 57 c-20 32 -39
63 -42 70 -3 7 12 29 33 48 21 19 36 38 33 41 -3 3 -20 -9 -38 -26 -37 -35
-57 -32 -67 7 -7 28 5 43 78 96 37 27 5 21 -36 -7 -46 -31 -48 -31 -36 1 6 14
10 38 10 54 0 21 8 33 32 49 34 22 27 28 -15 12 -20 -8 -25 -18 -30 -61 -4
-32 -16 -65 -30 -84 -39 -51 -43 -60 -23 -53 13 5 26 -8 56 -56 41 -64 46 -82
30 -107 -8 -12 -16 -13 -57 -2 -57 16 -181 85 -232 129 -41 37 -27 45 16 9 38
-31 62 -43 135 -66 72 -23 78 -23 78 -11 0 9 -34 20 -81 26 -52 7 -99 34 -119
68 -12 19 -34 40 -51 47 -46 20 -78 49 -94 86 -8 19 -18 34 -24 34 -21 0 -70
53 -82 88 -6 20 -27 54 -45 74 -37 42 -38 43 -59 180 -17 114 -20 241 -4 269
6 11 37 32 70 46 45 20 57 29 49 38 -8 10 0 22 31 49 42 35 64 42 39 11 -11
-13 -10 -14 4 -9 15 6 33 50 24 59 -2 3 -28 -11 -57 -30 -56 -37 -73 -36 -84
5 -11 43 77 109 186 139 86 23 123 17 147 -22 13 -21 16 -33 8 -38 -7 -4 -2
-11 12 -19 20 -11 26 -9 42 11 14 17 18 19 14 7 -4 -14 0 -18 18 -18 19 0 27
12 51 83 31 87 65 210 60 215 -2 2 -14 -28 -26 -67 -13 -39 -27 -71 -31 -71
-8 0 -12 16 -9 33 1 5 -3 6 -9 2 -6 -3 -8 -22 -5 -43 5 -30 1 -42 -21 -67
l-26 -30 17 28 c12 21 15 39 10 69 -5 27 -10 36 -15 27 -5 -7 -4 -21 1 -30 13
-26 12 -29 -17 -29 -23 0 -25 2 -14 15 17 21 7 29 -25 21 -23 -6 -26 -10 -20
-36 4 -19 3 -30 -4 -30 -6 0 -11 10 -11 23 0 27 -17 47 -41 47 -10 0 -20 11
-23 25 -4 15 -14 25 -24 25 -19 0 -105 -51 -116 -69 -4 -6 -17 -11 -29 -11
-12 0 -29 -5 -37 -11 -11 -8 -8 -9 16 -5 28 4 78 -16 64 -26 -3 -2 -34 -18
-70 -36 -54 -27 -60 -29 -37 -10 36 31 34 38 -8 38 -40 0 -55 -21 -37 -50 17
-27 3 -32 -28 -10 -37 26 -41 26 -79 -14 -31 -32 -33 -38 -27 -77 4 -24 12
-49 18 -56 7 -9 7 -13 -1 -13 -11 0 -51 75 -51 95 0 7 11 29 25 50 14 20 20
35 13 33 -7 -3 -19 9 -26 26 -13 31 -13 32 47 88 86 81 172 102 217 53 l24
-26 -23 -9 -22 -9 24 0 c27 -1 91 38 91 54 0 6 -8 21 -17 35 -16 23 -16 24 9
43 23 17 24 21 11 36 -8 9 -23 27 -34 41 -19 24 -19 24 1 -13 11 -21 20 -39
20 -41 0 -10 -98 -63 -126 -69 -27 -5 -31 -2 -41 24 -10 26 -16 29 -55 29 -24
0 -54 -7 -66 -16 -13 -9 -22 -11 -22 -4 0 9 48 44 75 54 6 2 7 6 4 10 -3 3
-23 -1 -43 -9 -20 -9 -41 -13 -46 -10 -9 6 -109 186 -177 320 -308 607 -393
769 -393 747 0 -13 380 -770 499 -994 44 -83 49 -98 34 -99 -10 0 -49 0 -88 0
-59 1 -73 4 -87 22 -21 25 -23 45 -5 52 9 3 9 8 1 16 -7 8 -8 26 -3 54 10 54
11 69 1 63 -4 -2 -6 13 -4 35 3 31 1 39 -12 39 -19 0 -21 30 -3 50 9 11 8 11
-7 0 -18 -14 -19 -13 -14 8 5 19 3 22 -12 17 -19 -6 -50 18 -50 39 0 8 -7 19
-15 26 -17 14 -21 0 -5 -16 6 -6 13 -54 17 -107 6 -92 7 -97 28 -97 28 0 43
-17 51 -58 5 -27 2 -36 -26 -62 -28 -26 -31 -34 -25 -63 4 -17 7 -45 8 -62 l1
-30 137 0 c89 0 142 -4 149 -11 9 -9 -29 -13 -144 -16 -85 -2 -158 -7 -162
-10 -15 -16 8 -25 43 -17 59 13 290 12 276 -2 -7 -7 -47 -11 -107 -10 -115 2
-216 -8 -216 -22 0 -6 13 -7 33 -2 17 4 80 9 140 10 86 3 107 0 107 -11 0 -17
8 -16 -138 -19 -67 -1 -125 -5 -128 -8 -4 -3 -2 -19 4 -35 7 -21 6 -37 -4 -61
-19 -45 -18 -50 12 -63 22 -10 28 -9 47 15 18 21 34 28 80 33 40 5 57 3 57 -5
0 -6 -10 -11 -22 -11 -39 0 -96 -25 -115 -49 -21 -26 -41 -21 -77 18 -17 19
-17 23 -3 58 13 33 13 42 1 63 -18 33 -16 105 4 153 14 35 14 41 0 65 -20 35
-13 89 13 97 20 7 33 41 27 72 -2 12 -14 19 -35 21 l-31 3 -7 105 c-6 83 -10
104 -22 104 -13 0 -14 -23 -8 -174 l7 -174 -41 -43 c-54 -54 -53 -86 2 -112
23 -12 37 -26 37 -38 0 -16 -8 -19 -57 -19 -32 -1 -69 -7 -83 -15 -34 -20 -36
-19 -50 15 -16 39 -65 80 -95 80 -38 0 -90 -54 -121 -125 -16 -36 -33 -64 -39
-62 -19 6 -44 74 -88 239 -41 150 -58 236 -102 509 l-15 96 40 42 c32 33 40
49 40 78 0 49 -34 97 -92 128 -27 15 -48 30 -48 35 0 5 13 16 29 25 16 8 38
26 49 40 11 14 22 25 25 25 3 0 21 -14 39 -30 18 -17 50 -35 71 -41 33 -9 44
-7 79 13 58 32 80 67 86 133 4 49 1 62 -25 104 l-30 48 28 17 c16 9 40 32 54
51 l26 33 -46 91 c-49 99 -56 103 -122 76 -19 -8 -37 -15 -39 -15 -2 0 -4 17
-4 38 0 20 -9 52 -20 70 -44 72 -118 68 -193 -9 -26 -27 -50 -63 -54 -79 -9
-49 -23 -34 -25 28 -3 86 2 123 17 146 14 20 11 62 -6 80 -5 6 -9 22 -9 37 0
23 5 27 38 33 51 8 74 35 80 95 4 44 1 53 -23 76 -27 28 -56 30 -109 9 -19 -7
-19 -2 -13 139 7 149 0 179 -24 110z m44 -298 c-3 -13 -11 -30 -19 -36 -11 -9
-14 -7 -14 9 0 30 10 52 25 52 8 0 10 -9 8 -25z m69 -61 c13 -12 -6 -45 -29
-50 -23 -6 -63 18 -63 37 0 12 81 24 92 13z m-137 -124 c3 -6 -1 -13 -9 -16
-22 -8 -68 4 -61 16 8 13 62 13 70 0z m63 -22 c7 -7 12 -26 12 -42 l-1 -31
-28 35 c-16 19 -27 38 -25 42 8 12 28 10 42 -4z m-34 -128 c15 -15 -35 -29
-66 -18 -30 11 -36 23 -15 32 16 7 69 -2 81 -14z m-309 -200 c3 -5 -1 -10 -9
-10 -9 0 -16 5 -16 10 0 6 4 10 9 10 6 0 13 -4 16 -10z m19 -40 c11 -11 -1
-30 -19 -30 -16 0 -45 27 -45 42 0 11 49 2 64 -12z m503 -52 c-3 -8 -6 -5 -6
6 -1 11 2 17 5 13 3 -3 4 -12 1 -19z m-22 -28 c10 -11 16 -20 13 -20 -3 0 -13
9 -23 20 -10 11 -16 20 -13 20 3 0 13 -9 23 -20z m75 -10 c-13 -24 -30 -26
-30 -4 0 8 4 13 9 9 5 -3 12 -1 16 5 11 19 16 10 5 -10z m-610 -3 c0 -19 -40
-41 -53 -28 -7 7 -6 15 3 26 15 18 50 20 50 2z m70 -2 c21 -25 1 -31 -22 -7
-18 18 -19 22 -6 22 8 0 21 -7 28 -15z m460 -20 c7 -9 19 -14 27 -11 7 3 13 1
13 -3 0 -11 -81 -51 -101 -50 -8 0 1 6 20 13 44 16 52 36 14 37 -26 2 -26 2
-4 6 19 4 21 7 10 14 -8 5 -9 9 -3 9 6 0 17 -7 24 -15z m94 -10 c-4 -8 -11
-15 -16 -15 -6 0 -5 6 2 15 7 8 14 15 16 15 2 0 1 -7 -2 -15z m-4 -50 c7 -8 8
-15 2 -15 -5 0 -15 7 -22 15 -7 8 -8 15 -2 15 5 0 15 -7 22 -15z m-40 -5 c0
-5 -4 -10 -9 -10 -6 0 -13 5 -16 10 -3 6 1 10 9 10 9 0 16 -4 16 -10z m-460
-9 c0 -14 -52 -61 -61 -55 -16 9 -10 32 13 48 25 18 48 21 48 7z m420 4 c0 -2
-10 -9 -22 -15 -22 -11 -22 -10 -4 4 21 17 26 19 26 11z m-100 -35 c0 -5 -4
-10 -10 -10 -5 0 -10 5 -10 10 0 6 5 10 10 10 6 0 10 -4 10 -10z m-439 -351
c18 -26 18 -26 -8 -50 -14 -13 -34 -43 -44 -66 -10 -24 -20 -43 -23 -43 -10 0
30 87 51 110 28 30 28 31 3 60 -11 13 -20 35 -19 49 1 26 1 26 11 -4 6 -16 19
-42 29 -56z m249 41 c5 0 12 5 15 10 3 6 12 10 18 10 7 0 4 -7 -5 -14 -26 -20
-22 -26 15 -21 l32 5 -32 -11 c-43 -15 -63 -6 -62 28 1 17 3 21 6 11 2 -10 8
-18 13 -18z m-30 -22 c0 -12 -62 -48 -83 -48 -10 0 -15 5 -12 10 3 6 17 10 31
10 13 0 24 5 24 10 0 6 -7 10 -15 10 -8 0 -15 4 -15 10 0 6 9 6 26 0 35 -14
36 -13 24 9 -5 11 -10 23 -10 28 1 10 30 -28 30 -39z m175 3 c3 -5 1 -12 -5
-16 -5 -3 -10 1 -10 9 0 18 6 21 15 7z m-50 -31 c4 -6 -11 -10 -37 -10 l-43 0
25 -21 25 -20 -25 6 -25 6 25 -20 c14 -11 19 -21 13 -21 -15 0 -53 36 -53 50
0 6 -7 10 -15 10 -8 0 -15 5 -15 11 0 6 6 9 13 6 8 -3 20 -1 28 4 19 12 76 11
84 -1z m-129 -55 c3 -19 3 -43 -2 -52 -6 -14 -9 -10 -14 17 l-6 35 -12 -30
-12 -30 5 33 c2 17 0 32 -5 32 -6 0 -10 -4 -10 -10 0 -5 -5 -10 -12 -10 -6 0
-1 11 12 25 32 34 48 31 56 -10z m174 15 c0 -5 -2 -10 -4 -10 -3 0 -8 5 -11
10 -3 6 -1 10 4 10 6 0 11 -4 11 -10z m-130 -44 c0 -6 -7 -2 -15 8 -8 11 -15
25 -15 30 0 6 7 2 15 -8 8 -11 15 -25 15 -30z m-333 -138 c-2 -13 -4 -5 -4 17
-1 22 1 32 4 23 2 -10 2 -28 0 -40z m543 0 c0 -17 -1 -29 -3 -27 -2 2 -11 16
-20 32 -17 26 -17 27 3 27 16 0 20 -7 20 -32z m-475 -78 c3 -5 1 -10 -4 -10
-6 0 -11 5 -11 10 0 6 2 10 4 10 3 0 8 -4 11 -10z m-165 -160 c-8 -5 -19 -10
-25 -10 -5 0 -3 5 5 10 8 5 20 10 25 10 6 0 3 -5 -5 -10z m-50 -20 c-8 -5 -19
-10 -25 -10 -5 0 -3 5 5 10 8 5 20 10 25 10 6 0 3 -5 -5 -10z m1451 -129 c22
-18 22 -20 6 -26 -19 -8 -47 10 -47 31 0 19 14 17 41 -5z m-22 -155 c10 -27 2
-56 -15 -56 -8 0 -22 16 -31 36 -14 29 -15 37 -4 44 19 11 41 1 50 -24z m-51
-56 c11 -17 10 -20 -7 -20 -21 0 -45 23 -34 33 12 13 28 7 41 -13z m-850 -40
c40 -38 23 -77 -26 -59 -13 5 -35 7 -50 4 -26 -5 -26 -5 -4 5 19 8 21 13 12
29 -14 27 -13 29 13 34 12 2 25 5 28 6 3 0 15 -8 27 -19z m1617 -10 c3 -5 1
-10 -4 -10 -6 0 -11 5 -11 10 0 6 2 10 4 10 3 0 8 -4 11 -10z m-1491 -90 c19
-7 26 -17 26 -35 0 -33 -14 -32 -39 4 -31 43 -29 47 13 31z m-77 -27 c-9 -9
-19 -14 -23 -11 -10 10 6 28 24 28 15 0 15 -1 -1 -17z m-23 -79 c9 -22 -3 -32
-14 -14 -12 19 -12 30 -1 30 5 0 12 -7 15 -16z m136 -1 c-1 -14 -30 -47 -36
-41 -6 7 17 48 28 48 5 0 8 -3 8 -7z m390 -43 c0 -13 -1 -13 -10 0 -5 8 -10
22 -10 30 0 13 1 13 10 0 5 -8 10 -22 10 -30z m34 25 c-7 -17 11 -21 21 -5 3
6 12 10 18 10 7 0 4 -7 -5 -14 -26 -19 -22 -29 7 -22 15 4 25 2 25 -4 0 -7
-15 -10 -37 -8 -33 3 -38 7 -41 31 -2 15 1 27 7 27 6 0 8 -7 5 -15z m-63 -34
l24 -19 -26 -7 c-15 -4 -38 -5 -50 -2 -19 3 -17 5 9 6 36 1 40 8 15 27 -10 7
-13 14 -7 14 7 0 22 -9 35 -19z m329 -23 c0 -13 -5 -30 -10 -38 -8 -13 -13
-12 -32 7 -22 22 -22 23 -3 38 29 21 45 18 45 -7z m-120 2 c0 -5 -4 -10 -10
-10 -5 0 -10 5 -10 10 0 6 5 10 10 10 6 0 10 -4 10 -10z m270 -11 c-7 -11 -14
-18 -17 -15 -8 8 5 36 17 36 7 0 7 -6 0 -21z m-52 -25 c1 0 -13 -17 -31 -36
l-33 -35 3 31 c2 17 6 42 9 55 5 23 5 23 27 5 12 -10 23 -19 25 -20z m-273 16
c4 -7 -8 -8 -37 -4 l-43 7 24 -27 c24 -25 17 -38 -7 -14 -9 9 -12 9 -12 0 0
-7 7 -15 15 -18 8 -4 15 -11 15 -17 0 -6 -11 0 -25 13 -14 13 -25 28 -25 33 0
5 -8 16 -17 23 -16 12 -10 13 44 14 34 0 65 -5 68 -10z m-138 -43 c2 -21 -1
-45 -7 -55 -9 -13 -10 -9 -5 21 7 44 1 47 -20 10 -16 -28 -16 -9 0 31 8 18 7
18 -21 1 l-29 -17 29 26 c36 34 48 30 53 -17z m42 -30 c1 -5 -3 -5 -9 -2 -5 3
-10 16 -9 28 0 21 1 21 9 2 5 -11 9 -24 9 -28z m461 30 c0 -8 -11 -24 -25 -37
-14 -13 -23 -30 -21 -37 6 -14 -54 -17 -88 -4 -17 7 -15 11 21 49 33 34 47 42
76 42 24 0 37 -5 37 -13z m242 -4 l37 -5 -41 -39 -41 -38 7 -63 c4 -35 11 -79
16 -98 21 -91 22 -88 -6 -106 -22 -15 -27 -15 -36 -3 -8 11 -9 11 -5 -3 4 -11
-5 -25 -26 -41 -18 -14 -52 -44 -77 -67 -53 -49 -107 -90 -95 -71 5 9 3 12 -5
9 -8 -2 -18 -18 -24 -36 -11 -30 -92 -110 -102 -100 -3 3 -1 24 5 47 8 38 1
55 -14 31 -4 -6 -11 -8 -16 -5 -5 4 -14 -4 -19 -17 -9 -19 -10 -16 -6 16 7 49
40 85 85 91 35 4 102 44 95 57 -3 4 -12 4 -20 1 -14 -5 -15 -3 -1 23 22 42 36
129 35 209 -1 90 20 142 59 150 43 9 93 37 105 58 7 14 16 17 31 12 12 -4 39
-9 59 -12z m-752 -103 c0 -5 -2 -10 -4 -10 -3 0 -8 5 -11 10 -3 6 -1 10 4 10
6 0 11 -4 11 -10z m457 -4 c1 -1 0 -12 -4 -25 -4 -17 -12 -22 -34 -19 -24 2
-31 -4 -56 -52 -42 -79 -57 -139 -44 -173 12 -31 -6 -80 -47 -130 -7 -8 -28
-54 -47 -103 -34 -85 -35 -92 -23 -142 6 -28 8 -55 5 -59 -11 -10 -14 -2 -28
63 -12 57 -11 65 9 108 12 25 22 50 22 55 0 6 11 27 25 47 13 20 27 51 31 70
4 21 12 34 21 34 13 0 14 10 9 53 -7 60 11 130 45 176 12 17 23 47 25 68 2 21
3 39 3 40 1 1 85 -9 88 -11z m-330 -112 c31 -19 60 -27 90 -27 40 0 44 -2 39
-21 -3 -12 -6 -25 -6 -30 0 -4 -29 -5 -64 -1 -63 6 -65 6 -92 -24 -15 -17 -31
-31 -35 -31 -5 0 -14 18 -20 40 -10 32 -9 49 1 83 7 23 14 49 17 57 4 13 6 12
14 -2 5 -10 30 -30 56 -44z m320 -88 c-3 -30 -12 -68 -21 -84 -9 -17 -18 -41
-20 -54 -2 -18 -10 -23 -35 -23 -17 0 -31 -3 -31 -6 0 -4 -9 -9 -19 -12 -14
-3 -18 -1 -14 9 3 8 16 17 30 20 14 4 21 9 16 13 -11 7 -12 51 -1 51 4 0 8 9
8 20 0 11 9 28 20 37 11 10 20 28 20 41 0 17 4 23 15 18 9 -3 15 0 15 9 0 8 5
15 11 15 8 0 10 -17 6 -54z m-277 -5 c0 -12 -29 -23 -42 -15 -6 4 -5 10 3 15
18 11 39 11 39 0z m82 -28 c20 -24 41 -64 35 -69 -11 -11 -37 10 -48 39 -7 18
-14 35 -17 40 -8 14 15 7 30 -10z m-607 -43 c-3 -5 -11 -10 -16 -10 -6 0 -7 5
-4 10 3 6 11 10 16 10 6 0 7 -4 4 -10z m280 -80 c22 0 25 -14 13 -48 -9 -24
-9 -34 1 -46 7 -9 17 -13 22 -10 5 3 9 -2 9 -10 0 -12 -16 -15 -85 -14 -79 1
-105 8 -71 21 8 3 18 22 22 41 3 20 10 36 14 36 5 0 12 9 15 20 3 11 14 28 23
37 16 16 17 15 20 -5 2 -12 10 -22 17 -22z m845 -27 c17 -27 4 -46 -52 -73
-32 -15 -38 -16 -38 -3 0 8 7 27 14 41 8 15 23 45 32 66 17 38 18 38 25 15 3
-14 12 -34 19 -46z m-1080 21 c0 -8 4 -14 9 -14 5 0 21 -23 36 -51 l26 -51
-31 22 c-32 23 -39 34 -44 67 -2 10 -11 17 -20 17 -19 -2 -20 2 -3 20 14 16
27 11 27 -10z m540 -44 c-9 -17 -50 -30 -50 -16 0 20 16 36 36 36 22 0 23 -3
14 -20z m-64 -46 c-3 -9 -9 -27 -12 -40 -3 -13 -10 -24 -15 -24 -5 0 -9 2 -9
4 0 2 -7 20 -15 40 l-15 36 36 0 c29 0 35 -3 30 -16z m738 -113 c37 -16 50
-29 72 -73 67 -132 268 -268 404 -273 33 -1 55 -7 55 -13 0 -17 -104 -132
-139 -153 -53 -33 -64 -29 -211 81 -104 77 -166 132 -206 183 l-39 49 0 109
c0 60 4 109 9 109 5 0 30 -9 55 -19z m-609 -30 c3 -5 1 -12 -5 -16 -5 -3 -10
1 -10 9 0 18 6 21 15 7z m-357 -55 c-10 -7 -18 -19 -18 -25 0 -7 -4 -10 -9 -7
-5 4 -3 20 6 37 11 23 18 28 27 19 8 -8 7 -15 -6 -24z m-633 14 c3 -5 1 -10
-4 -10 -6 0 -11 5 -11 10 0 6 2 10 4 10 3 0 8 -4 11 -10z m155 0 c0 -5 -2 -10
-4 -10 -3 0 -8 5 -11 10 -3 6 -1 10 4 10 6 0 11 -4 11 -10z m154 -22 c23 -55
28 -78 18 -78 -5 0 -12 10 -15 21 -4 16 -11 20 -26 16 -14 -3 -21 0 -21 9 0 8
6 11 16 7 14 -5 15 -1 9 25 -9 42 2 41 19 0z m139 -6 c-4 -28 -1 -42 12 -52
15 -12 19 -11 36 10 l19 25 -8 -25 c-9 -25 -38 -36 -58 -23 -17 12 -25 103 -9
103 9 0 12 -11 8 -38z m75 26 c-6 -18 -28 -21 -28 -4 0 9 7 16 16 16 9 0 14
-5 12 -12z m-585 -31 c-3 -23 0 -37 11 -46 20 -16 50 -6 42 14 -3 9 0 15 8 15
9 0 12 -8 8 -25 -3 -19 -11 -25 -30 -25 -49 0 -81 57 -50 88 17 17 17 16 11
-21z m199 -5 c10 -7 18 -23 17 -35 0 -15 -2 -17 -6 -7 -3 8 -17 24 -31 36 -17
14 -22 25 -17 34 7 12 9 12 13 0 3 -8 13 -21 24 -28z m-94 -47 c-6 -14 -13
-23 -15 -21 -5 5 15 46 22 46 3 0 -1 -11 -7 -25z m152 -5 c0 -5 -4 -10 -10
-10 -5 0 -10 5 -10 10 0 6 5 10 10 10 6 0 10 -4 10 -10z m184 -11 c-3 -5 -10
-7 -15 -3 -5 3 -7 10 -3 15 3 5 10 7 15 3 5 -3 7 -10 3 -15z m396 -28 c0 -5
-7 -12 -16 -15 -14 -5 -15 -4 -4 9 14 17 20 19 20 6z m1481 -228 c-5 -10 -12
-27 -16 -38 -5 -15 -8 -17 -15 -5 -5 8 -2 22 8 36 20 27 36 32 23 7z m-291
-857 c0 -17 -14 -29 -23 -20 -8 8 3 34 14 34 5 0 9 -6 9 -14z m-28 -41 c11 -5
12 -23 6 -93 -13 -140 -16 -152 -41 -153 l-22 0 23 -9 c16 -7 22 -18 22 -40 0
-34 1 -34 -35 -20 -26 10 -26 10 -21 92 9 123 17 170 34 201 9 15 17 27 18 27
1 0 9 -2 16 -5z"/>
<path d="M2545 2692 c-5 -4 -16 -18 -23 -31 -13 -22 -12 -22 25 5 21 16 40 29
42 31 2 2 -4 3 -15 3 -10 0 -23 -4 -29 -8z"/>
<path d="M2050 2881 c-11 -22 -13 -52 -4 -75 5 -14 11 -12 37 10 28 23 36 25
84 19 35 -4 53 -3 53 4 0 6 -15 11 -32 11 -18 0 -53 11 -77 25 -52 30 -48 30
-61 6z"/>
<path d="M1900 2630 c0 -5 5 -10 10 -10 6 0 10 5 10 10 0 6 -4 10 -10 10 -5 0
-10 -4 -10 -10z"/>
<path d="M2690 2570 c0 -5 7 -7 15 -4 8 4 15 8 15 10 0 2 -7 4 -15 4 -8 0 -15
-4 -15 -10z"/>
<path d="M1134 5768 c-4 -6 2 -18 12 -26 59 -45 297 -131 309 -111 3 4 -7 11
-22 15 -53 11 -68 16 -133 41 -36 14 -86 41 -112 59 -31 22 -50 30 -54 22z"/>
<path d="M1540 5740 c0 -9 69 -35 75 -28 2 1 -14 11 -36 20 -21 9 -39 13 -39
8z"/>
<path d="M1120 5716 c0 -2 7 -7 16 -10 8 -3 12 -2 9 4 -6 10 -25 14 -25 6z"/>
<path d="M1530 5690 c0 -31 1 -31 104 -54 l28 -7 -18 32 c-14 23 -32 36 -64
45 -25 8 -46 14 -47 14 -2 0 -3 -13 -3 -30z"/>
<path d="M1526 5621 c-8 -12 16 -18 92 -24 69 -5 67 8 -2 17 -30 3 -61 9 -69
12 -8 3 -18 1 -21 -5z"/>
<path d="M1522 5569 c2 -15 9 -23 18 -20 43 12 91 4 112 -17 19 -19 23 -33 23
-86 0 -77 -24 -111 -86 -121 -43 -7 -46 -12 -24 -41 19 -25 19 -85 0 -110 -14
-19 -21 -95 -9 -107 4 -3 19 11 34 31 30 42 59 63 108 80 64 22 136 -31 148
-110 5 -31 10 -38 23 -32 9 4 28 9 43 11 l26 5 -18 44 c-11 24 -68 141 -127
261 -97 195 -111 218 -133 219 -14 0 -51 4 -83 9 -58 7 -59 7 -55 -16z m242
-192 c42 -72 136 -268 136 -284 0 -4 -9 2 -20 12 -11 10 -20 24 -20 32 0 7 -9
13 -19 13 -19 0 -37 25 -32 45 2 6 -1 7 -4 3 -4 -4 -21 0 -37 8 -17 9 -27 18
-24 21 3 3 -3 18 -13 32 -21 29 -18 89 5 98 19 7 18 23 -1 23 -16 0 -20 12 -8
23 11 12 18 8 37 -26z"/>
<path d="M6909 5201 c7 -11 15 -21 19 -21 11 0 32 -83 32 -126 0 -19 -9 -53
-20 -74 -11 -22 -16 -40 -10 -40 21 0 99 -83 111 -117 32 -96 -48 -191 -153
-181 -47 5 -48 5 -48 -24 0 -54 -52 -122 -101 -133 -38 -9 -104 22 -153 71
l-38 39 5 -54 c4 -30 13 -61 22 -71 17 -19 21 -95 5 -105 -24 -15 -9 -35 26
-35 27 0 43 -7 65 -31 l29 -31 57 22 c32 12 139 42 238 66 215 54 357 94 368
103 15 15 -66 414 -121 590 -19 62 -17 61 -167 91 -61 12 -114 25 -118 29 -9
9 22 5 143 -15 101 -17 117 -17 105 -5 -6 6 -72 21 -148 35 -76 14 -143 29
-149 32 -6 4 -6 -2 1 -15z"/>
<path d="M2004 4776 l-41 -41 23 -35 c19 -27 24 -48 24 -93 0 -84 -27 -129
-100 -166 l-56 -28 52 -11 c77 -16 158 -57 198 -102 33 -36 36 -45 36 -99 0
-61 -13 -87 -70 -139 -32 -29 -172 -97 -230 -112 -130 -33 -119 -26 -109 -68
4 -20 20 -89 33 -152 28 -126 93 -377 102 -392 4 -5 19 17 34 49 56 118 135
154 204 93 33 -29 36 -30 79 -19 44 11 45 11 40 47 -4 32 1 43 37 81 l41 44
-9 153 c-4 84 -11 157 -15 161 -4 4 -15 -1 -25 -10 -14 -14 -16 -31 -13 -85 8
-133 4 -213 -12 -239 -4 -6 -32 -23 -63 -39 -45 -23 -69 -28 -124 -28 -38 0
-64 -4 -57 -8 8 -5 7 -8 -5 -8 -10 0 -18 -4 -18 -9 0 -18 -41 -18 -64 0 -13
10 -30 19 -36 19 -7 0 -10 7 -6 15 4 10 -3 19 -18 25 -29 11 -40 26 -26 35 6
4 8 10 6 14 -3 4 -7 34 -10 67 -6 67 -14 94 -27 94 -5 0 -9 5 -9 11 0 5 5 7
10 4 6 -3 10 -3 11 2 0 4 2 20 3 35 2 29 50 78 77 78 9 0 20 7 23 16 4 9 13
14 22 10 8 -3 13 -2 10 2 -3 5 18 19 45 31 37 16 54 19 64 11 15 -12 45 12 45
35 0 8 6 13 13 11 15 -5 79 67 81 91 0 10 7 24 13 31 11 11 10 16 -2 28 -10
10 -12 21 -6 31 15 27 -14 93 -41 93 -18 0 -37 28 -32 47 4 14 -2 23 -20 31
-14 6 -26 16 -26 22 0 7 -8 9 -20 5 -18 -6 -19 -3 -14 27 3 18 8 40 11 48 3 8
6 35 7 60 1 25 5 51 9 57 4 7 1 29 -8 49 -18 45 -18 44 0 44 8 0 15 -4 15 -10
0 -5 5 -10 10 -10 7 0 7 6 0 19 -5 11 -10 28 -10 38 1 14 6 12 26 -12 24 -28
24 -27 -5 33 -17 34 -32 62 -34 61 -1 -1 -21 -20 -43 -43z"/>
<path d="M5335 4700 c-3 -5 -1 -10 4 -10 6 0 11 5 11 10 0 6 -2 10 -4 10 -3 0
-8 -4 -11 -10z"/>
<path d="M760 4501 c20 -11 370 -23 370 -12 0 4 -64 11 -142 14 -190 9 -247 8
-228 -2z"/>
<path d="M1677 4460 c-25 -27 -32 -40 -22 -40 26 0 115 -96 115 -123 0 -14 7
-38 15 -53 30 -59 14 -136 -43 -196 -14 -15 -23 -31 -19 -34 4 -4 2 -13 -5
-21 -8 -10 -8 -17 0 -25 15 -15 163 74 208 126 37 43 42 63 33 120 -12 70 -68
122 -189 172 -36 15 -72 34 -80 42 -13 13 -8 14 44 9 32 -3 55 -3 50 1 -5 4
-23 19 -39 34 l-30 27 -38 -39z m179 -211 c8 -16 14 -34 14 -41 -1 -7 -7 1
-15 17 -8 17 -22 41 -32 55 -17 24 -17 24 0 11 10 -8 25 -27 33 -42z m24 -81
c0 -6 -9 -30 -20 -53 -21 -43 -101 -110 -123 -102 -6 2 6 13 28 24 22 12 50
32 62 45 25 27 46 76 37 89 -3 5 0 9 5 9 6 0 11 -5 11 -12z m-50 -47 c0 -6
-11 -23 -25 -38 l-26 -28 23 37 c25 40 28 43 28 29z"/>
<path d="M7125 4370 c-126 -33 -272 -75 -322 -95 -83 -33 -93 -40 -93 -62 0
-13 3 -23 8 -21 98 50 167 76 312 119 298 88 340 101 340 110 0 12 16 15 -245
-51z"/>
<path d="M7232 4335 c-273 -89 -462 -211 -462 -298 0 -149 162 -230 563 -282
42 -6 47 -4 47 13 0 16 -12 21 -87 31 -49 7 -140 25 -204 41 -207 51 -259 85
-259 170 0 50 26 97 73 133 40 30 132 78 172 88 17 4 92 31 168 60 108 41 137
56 137 71 0 10 -3 18 -7 17 -5 0 -68 -20 -141 -44z"/>
<path d="M2001 4324 c65 -71 76 -148 33 -224 l-26 -45 28 25 c14 14 35 39 45
55 23 37 25 25 2 -18 -15 -30 -15 -31 1 -18 49 40 59 116 24 168 -26 38 -49
46 -24 8 9 -13 16 -32 16 -42 0 -12 -5 -8 -16 12 -18 36 -61 83 -89 97 -16 8
-14 4 6 -18z"/>
<path d="M7295 4277 c-44 -18 -113 -54 -152 -80 -168 -112 -205 -227 -96 -301
44 -31 166 -72 238 -80 43 -5 39 -3 -27 15 -43 12 -76 25 -73 29 3 5 -11 21
-30 36 -84 64 -85 144 -2 231 35 37 44 64 19 56 -40 -12 28 31 116 73 50 25
92 47 92 49 0 7 3 8 -85 -28z m-128 -105 c9 -6 1 -19 -28 -48 -45 -43 -69 -88
-69 -131 0 -20 14 -41 56 -80 31 -29 51 -53 46 -53 -6 0 -14 5 -17 11 -4 6
-14 8 -23 4 -23 -9 -92 42 -108 81 -23 54 -4 106 62 171 57 55 61 58 81 45z"/>
<path d="M7122 4144 c-42 -33 -82 -103 -82 -143 0 -40 15 -69 49 -98 42 -36
48 -26 9 15 -19 20 -38 45 -42 56 -11 33 13 93 60 145 25 28 44 51 42 51 -1 0
-18 -12 -36 -26z"/>
<path d="M7283 4231 c-39 -22 -73 -38 -75 -35 -3 2 -5 -2 -5 -10 0 -13 89 29
152 71 40 27 -3 11 -72 -26z"/>
<path d="M7330 4202 c-138 -96 -159 -231 -47 -296 46 -28 107 -44 107 -30 0 5
-20 20 -45 33 -121 64 -110 211 24 304 14 9 22 19 20 22 -3 3 -30 -12 -59 -33z"/>
<path d="M7009 4182 c-60 -39 -117 -104 -124 -144 -10 -54 26 -122 80 -150 11
-6 3 7 -18 29 -80 84 -54 165 88 270 42 32 27 28 -26 -5z"/>
<path d="M7358 4172 c-77 -82 -76 -176 2 -232 36 -26 40 -13 5 20 -55 52 -54
133 2 200 32 39 25 49 -9 12z"/>
<path d="M6707 4142 c-80 -82 -65 -182 36 -254 30 -21 30 -20 -9 25 -23 26
-44 60 -47 75 -9 44 11 113 44 155 39 48 24 48 -24 -1z"/>
<path d="M6438 4122 c-57 -61 -68 -103 -43 -167 17 -45 60 -87 123 -119 43
-22 41 -13 -3 14 -105 65 -133 203 -55 273 17 15 30 33 28 38 -2 6 -25 -12
-50 -39z"/>
<path d="M1693 4145 c-8 -22 6 -33 17 -15 13 20 12 30 0 30 -6 0 -13 -7 -17
-15z"/>
<path d="M7369 4124 c-21 -54 -8 -144 21 -144 9 0 5 158 -4 168 -3 2 -11 -8
-17 -24z"/>
<path d="M6886 4100 c-29 -32 -36 -48 -36 -81 0 -43 24 -95 49 -104 12 -5 12
-3 -1 12 -47 52 -46 122 4 178 16 19 28 35 25 35 -2 0 -21 -18 -41 -40z"/>
<path d="M6568 4105 c-6 -6 8 -125 24 -193 14 -63 28 -73 183 -121 137 -42
440 -91 564 -91 77 0 31 15 -99 34 -139 19 -362 72 -469 112 -125 46 -180 116
-167 209 6 34 4 44 -9 49 -20 7 -20 7 -27 1z"/>
<path d="M6492 4075 c0 -16 2 -22 5 -12 2 9 2 23 0 30 -3 6 -5 -1 -5 -18z"/>
<path d="M6626 4084 c-19 -49 10 -151 45 -162 9 -3 7 3 -6 18 -16 17 -20 36
-20 91 0 67 -7 85 -19 53z"/>
<path d="M6351 4044 c0 -11 3 -14 6 -6 3 7 2 16 -1 19 -3 4 -6 -2 -5 -13z"/>
<path d="M1550 4018 c0 -24 5 -35 15 -35 9 0 15 9 15 22 0 13 -7 28 -15 35
-13 11 -15 7 -15 -22z"/>
<path d="M6351 3974 c0 -11 3 -14 6 -6 3 7 2 16 -1 19 -3 4 -6 -2 -5 -13z"/>
<path d="M1558 3935 c-43 -16 -91 -46 -84 -53 3 -2 37 3 76 13 56 14 70 21 70
36 0 22 -11 23 -62 4z"/>
<path d="M1260 3926 c-31 -17 -401 -156 -495 -186 -68 -22 -103 -40 -76 -40 6
0 101 29 209 64 108 35 244 78 302 96 118 36 129 42 110 65 -15 18 -18 18 -50
1z"/>
<path d="M3471 3873 c0 -25 1 -26 9 -8 12 27 12 35 0 35 -5 0 -10 -12 -9 -27z"/>
<path d="M1575 3879 c-16 -5 -108 -29 -204 -54 -96 -26 -222 -62 -280 -81
-125 -42 -312 -131 -360 -171 l-34 -29 24 -125 25 -124 37 -18 c44 -21 144
-48 402 -110 232 -56 211 -52 374 -77 172 -26 163 -27 144 11 -11 22 -14 46
-10 79 5 43 3 50 -17 63 -22 15 -23 14 -35 -19 -14 -39 -42 -54 -101 -54 -30
0 -46 7 -74 34 -39 36 -43 58 -22 118 13 37 13 37 -15 43 -16 4 -33 4 -38 0
-19 -11 -109 49 -131 88 -42 73 -7 120 87 118 56 0 69 -9 123 -75 33 -41 66
-67 124 -98 43 -24 99 -60 123 -82 26 -23 48 -35 53 -30 6 6 -1 41 -16 89 -14
44 -39 134 -54 200 -16 66 -29 111 -30 100 -3 -25 -3 -24 5 -60 4 -20 3 -26
-3 -17 -7 11 -10 9 -15 -7 -3 -12 -1 -19 3 -16 4 3 13 -9 19 -27 9 -26 9 -35
-5 -47 -15 -15 -15 -13 -10 19 l7 35 -16 -28 c-9 -16 -14 -35 -11 -43 9 -22
-13 -16 -38 11 -13 14 -28 25 -34 25 -6 0 -13 8 -16 18 -4 10 -21 25 -39 33
-27 12 -32 19 -29 44 2 23 0 26 -8 15 -8 -13 -10 -13 -10 3 0 9 -5 17 -11 17
-7 0 -9 -10 -5 -25 7 -27 -11 -36 -20 -10 -4 8 -15 15 -25 15 -10 0 -18 5 -16
12 1 6 -9 12 -23 12 -18 1 -24 6 -22 19 2 9 -2 17 -8 17 -5 0 -10 6 -10 13 0
8 13 13 38 12 29 0 39 -5 47 -22 14 -32 25 -29 25 7 0 20 5 30 15 30 8 0 15 4
15 10 0 15 83 48 96 38 8 -5 18 -3 28 8 10 9 18 15 20 13 23 -30 36 -58 36
-76 0 -13 5 -23 10 -23 13 0 13 6 -4 87 -24 111 -22 109 -81 92z"/>
<path d="M5150 3840 c0 -27 -5 -43 -15 -46 -11 -5 -15 -21 -14 -63 1 -51 2
-53 9 -22 5 19 6 40 3 48 -3 7 -1 13 5 13 6 0 13 -6 15 -12 3 -7 6 17 6 55 1
37 -1 67 -4 67 -3 0 -5 -18 -5 -40z"/>
<path d="M1245 3839 c-214 -64 -443 -139 -500 -164 -33 -14 -49 -23 -35 -20
14 4 41 10 60 14 19 5 92 29 162 54 132 49 291 96 391 117 31 6 57 16 57 21 0
14 -28 10 -135 -22z"/>
<path d="M5650 3845 c0 -8 4 -15 10 -15 5 0 7 7 4 15 -4 8 -8 15 -10 15 -2 0
-4 -7 -4 -15z"/>
<path d="M3432 3825 c0 -16 2 -22 5 -12 2 9 2 23 0 30 -3 6 -5 -1 -5 -18z"/>
<path d="M3396 3774 c-4 -14 -5 -28 -3 -31 3 -2 8 8 11 23 4 14 5 28 3 31 -3
2 -8 -8 -11 -23z"/>
<path d="M688 3753 c7 -3 16 -2 19 1 4 3 -2 6 -13 5 -11 0 -14 -3 -6 -6z"/>
<path d="M3397 3679 c-16 -38 -31 -97 -24 -89 3 3 15 29 27 59 22 58 20 85 -3
30z"/>
<path d="M5085 3643 c-10 -63 -12 -373 -3 -373 10 0 15 24 29 148 11 103 5
272 -11 272 -4 0 -11 -21 -15 -47z"/>
<path d="M3290 3526 c0 -8 5 -18 10 -21 6 -3 10 3 10 14 0 12 -4 21 -10 21 -5
0 -10 -6 -10 -14z"/>
<path d="M3245 3490 c3 -5 8 -10 11 -10 2 0 4 5 4 10 0 6 -5 10 -11 10 -5 0
-7 -4 -4 -10z"/>
<path d="M3145 3476 c-18 -13 -18 -14 2 -24 17 -10 20 -9 19 6 -1 11 5 16 17
14 9 -2 17 2 17 8 0 14 -33 12 -55 -4z"/>
<path d="M2205 3440 c-14 -6 -3 -9 40 -9 42 -1 56 2 45 9 -18 12 -58 12 -85 0z"/>
<path d="M3114 3305 c22 -17 36 -19 36 -6 0 10 -24 21 -43 21 -7 0 -3 -7 7
-15z"/>
<path d="M3018 3270 c-10 -12 -13 -20 -6 -22 13 -5 -49 -78 -66 -78 -6 0 -22
-9 -36 -20 l-25 -20 44 15 c65 22 98 19 117 -10 9 -14 21 -25 27 -25 19 0 56
-42 50 -56 -3 -8 0 -14 6 -14 6 0 11 -7 11 -15 0 -8 -8 -15 -17 -15 -16 -1
-16 -2 1 -11 24 -15 38 5 25 38 -14 38 -11 42 29 37 34 -4 32 -2 -18 16 -58
21 -106 60 -116 94 -6 18 -8 18 -13 5 -4 -11 -12 -14 -25 -9 -19 6 -19 7 1 26
15 14 42 87 30 83 -1 0 -10 -9 -19 -19z"/>
<path d="M770 3215 c0 -8 4 -15 9 -15 4 0 152 -29 327 -65 271 -55 391 -75
654 -110 l35 -5 -30 15 c-16 8 -49 14 -73 15 -56 0 -333 45 -442 71 -47 11
-161 35 -255 54 -93 18 -182 38 -197 44 -23 9 -28 8 -28 -4z"/>
<path d="M3355 3173 c4 -10 16 -40 27 -68 21 -53 109 -217 115 -212 11 11
-115 284 -134 292 -11 4 -13 1 -8 -12z"/>
<path d="M6436 3171 c-5 -7 36 -134 69 -213 5 -13 -2 -17 -34 -23 -62 -10 -65
-29 -4 -22 47 5 51 4 62 -20 6 -14 14 -23 17 -20 3 3 -16 61 -42 129 -26 68
-47 135 -48 151 -1 27 -10 35 -20 18z"/>
<path d="M787 3150 c19 -18 665 -143 793 -153 51 -5 45 -2 -30 10 -52 8 -149
26 -215 39 -537 110 -559 114 -548 104z"/>
<path d="M3070 3093 c0 -6 8 -17 18 -24 16 -13 16 -13 2 6 -8 11 -16 22 -17
24 -2 2 -3 0 -3 -6z"/>
<path d="M6550 3090 c0 -6 7 -27 15 -46 11 -26 19 -34 31 -30 8 3 18 6 20 6 2
0 4 4 4 10 0 5 -7 7 -15 4 -11 -4 -20 5 -30 30 -15 36 -25 46 -25 26z"/>
<path d="M5426 2995 c-10 -44 -24 -105 -32 -135 -16 -62 -18 -97 -3 -60 15 37
60 251 56 264 -2 6 -12 -25 -21 -69z"/>
<path d="M3216 3030 c-11 -3 -15 -9 -10 -13 10 -6 42 9 34 16 -3 3 -14 1 -24
-3z"/>
<path d="M6195 3028 c2 -7 18 -53 35 -103 17 -49 33 -96 36 -104 3 -10 11 -6
31 13 26 27 26 49 -1 27 -12 -10 -18 -4 -35 35 -12 26 -29 69 -39 96 -9 26
-20 48 -24 48 -4 0 -6 -6 -3 -12z"/>
<path d="M1661 2986 c11 -10 119 -17 119 -7 0 7 -24 11 -62 11 -34 0 -59 -2
-57 -4z"/>
<path d="M2960 2976 c-29 -10 -36 -18 -38 -44 -2 -18 -7 -32 -11 -32 -5 0 -20
-11 -35 -25 -25 -24 -27 -30 -25 -105 1 -44 5 -77 9 -75 4 2 10 39 13 82 l7
78 72 67 c73 67 74 78 8 54z"/>
<path d="M6120 2981 c0 -5 14 -48 30 -94 17 -47 30 -87 30 -90 0 -3 -10 -12
-23 -20 l-23 -15 4 52 c4 53 -20 125 -45 133 -7 3 -3 -12 8 -34 26 -51 25
-122 -3 -158 -11 -15 -50 -40 -85 -56 -34 -17 -63 -34 -63 -39 0 -14 22 -24
29 -12 8 13 194 122 209 122 17 0 24 18 13 37 -6 10 -24 55 -42 101 -28 76
-39 96 -39 73z"/>
<path d="M3350 2916 c0 -9 -5 -16 -11 -16 -5 0 -8 -4 -4 -10 8 -13 35 -1 35
15 0 8 -4 17 -10 20 -5 3 -10 -1 -10 -9z"/>
<path d="M6026 2864 c19 -44 11 -70 -26 -89 -41 -21 -57 -19 -74 13 -18 32
-21 18 -5 -27 13 -36 9 -35 56 -16 71 30 89 68 61 130 -18 39 -29 30 -12 -11z"/>
<path d="M3508 2787 l5 -99 -24 4 c-15 2 -24 -2 -24 -10 0 -8 -9 -20 -19 -28
-19 -13 -19 -14 7 -14 17 0 27 5 27 15 0 18 12 19 27 4 26 -26 28 110 4 197
-5 17 -6 -13 -3 -69z"/>
<path d="M5752 2855 c0 -16 2 -22 5 -12 2 9 2 23 0 30 -3 6 -5 -1 -5 -18z"/>
<path d="M3290 2851 c0 -7 -20 -11 -52 -11 -68 0 -58 -7 20 -13 63 -5 74 1 47
23 -10 9 -15 9 -15 1z"/>
<path d="M3356 2814 c-4 -9 -4 -19 -1 -22 2 -3 7 3 11 12 4 9 4 19 1 22 -2 3
-7 -3 -11 -12z"/>
<path d="M3375 2780 c3 -5 16 -15 28 -21 22 -12 22 -12 3 10 -19 21 -43 30
-31 11z"/>
<path d="M3011 2744 c-22 -28 -27 -54 -11 -54 6 0 10 8 10 17 0 9 10 27 22 40
12 13 17 23 10 23 -6 0 -20 -12 -31 -26z"/>
<path d="M5161 2744 c0 -11 3 -14 6 -6 3 7 2 16 -1 19 -3 4 -6 -2 -5 -13z"/>
<path d="M5290 2744 c0 -6 8 -19 18 -30 10 -10 22 -28 27 -39 7 -17 9 -17 12
-4 2 9 -10 32 -26 50 -17 18 -31 29 -31 23z"/>
<path d="M5841 2743 c-1 -7 8 -40 20 -74 12 -33 18 -63 15 -66 -10 -10 -22 8
-42 65 -10 28 -22 52 -27 52 -10 0 -10 0 31 -105 19 -50 28 -64 30 -47 2 12 9
22 17 22 7 0 15 7 19 15 3 8 2 15 -3 15 -5 0 -12 11 -15 24 -9 35 -44 113 -45
99z"/>
<path d="M5450 2722 c0 -5 7 -15 15 -22 8 -7 15 -8 15 -2 0 5 -7 15 -15 22 -8
7 -15 8 -15 2z"/>
<path d="M5744 2630 c3 -30 9 -72 13 -92 7 -33 10 -35 27 -23 17 13 17 17 -13
92 l-31 78 4 -55z"/>
<path d="M2852 2645 c0 -16 2 -22 5 -12 2 9 2 23 0 30 -3 6 -5 -1 -5 -18z"/>
<path d="M3203 2608 c-26 -42 -95 -228 -89 -243 5 -12 26 35 70 160 32 90 37
111 19 83z"/>
<path d="M2977 2575 c-3 -22 -10 -55 -13 -74 -5 -24 -4 -32 4 -27 13 8 25 82
20 117 -3 18 -5 15 -11 -16z"/>
<path d="M5302 2590 c0 -14 2 -19 5 -12 2 6 2 18 0 25 -3 6 -5 1 -5 -13z"/>
<path d="M5670 2595 c7 -8 17 -15 22 -15 6 0 5 7 -2 15 -7 8 -17 15 -22 15 -6
0 -5 -7 2 -15z"/>
<path d="M4911 2504 c0 -11 3 -14 6 -6 3 7 2 16 -1 19 -3 4 -6 -2 -5 -13z"/>
<path d="M5772 2465 c0 -16 2 -22 5 -12 2 9 2 23 0 30 -3 6 -5 -1 -5 -18z"/>
<path d="M5940 2470 c0 -5 4 -10 9 -10 6 0 13 5 16 10 3 6 -1 10 -9 10 -9 0
-16 -4 -16 -10z"/>
<path d="M5820 2450 c6 -11 13 -20 16 -20 2 0 0 9 -6 20 -6 11 -13 20 -16 20
-2 0 0 -9 6 -20z"/>
<path d="M5865 2440 c-16 -7 -17 -9 -3 -9 9 -1 20 4 23 9 7 11 7 11 -20 0z"/>
<path d="M2374 2388 c-14 -29 -19 -46 -11 -38 15 15 50 90 42 90 -3 0 -16 -24
-31 -52z"/>
<path d="M5331 2374 c0 -11 3 -14 6 -6 3 7 2 16 -1 19 -3 4 -6 -2 -5 -13z"/>
<path d="M5010 2345 c7 -9 15 -13 17 -11 7 7 -7 26 -19 26 -6 0 -6 -6 2 -15z"/>
<path d="M2289 2283 c-13 -16 -12 -17 4 -4 9 7 17 15 17 17 0 8 -8 3 -21 -13z"/>
<path d="M3448 2275 c-3 -14 -1 -25 3 -25 5 0 9 11 9 25 0 14 -2 25 -4 25 -2
0 -6 -11 -8 -25z"/>
<path d="M3640 2296 c0 -2 8 -10 18 -17 15 -13 16 -12 3 4 -13 16 -21 21 -21
13z"/>
<path d="M6710 2280 c0 -5 -8 -6 -17 -3 -15 6 -16 5 -3 -9 11 -11 19 -13 28
-6 15 12 16 28 2 28 -5 0 -10 -4 -10 -10z"/>
<path d="M6616 2255 c-8 -23 -8 -35 3 -35 13 0 23 32 13 42 -6 6 -12 3 -16 -7z"/>
<path d="M2406 2235 c-3 -9 -6 -22 -5 -28 0 -7 5 -1 10 12 5 13 8 26 5 28 -2
2 -6 -3 -10 -12z"/>
<path d="M3416 2203 c-6 -14 -5 -15 5 -6 7 7 10 15 7 18 -3 3 -9 -2 -12 -12z"/>
<path d="M1634 2098 c-25 -51 -55 -105 -66 -121 l-20 -29 -32 30 c-47 45 -69
48 -108 13 l-33 -30 58 -55 c31 -30 57 -61 57 -70 0 -29 19 -16 46 32 14 26
48 79 75 119 52 76 89 152 89 184 0 39 -21 16 -66 -73z m-104 -188 c0 -32 -16
-48 -32 -32 -8 8 -7 20 2 41 15 36 30 32 30 -9z"/>
<path d="M3457 2183 c-4 -3 -7 -11 -7 -17 0 -6 5 -5 12 2 6 6 9 14 7 17 -3 3
-9 2 -12 -2z"/>
<path d="M3490 2149 c0 -5 5 -7 10 -4 6 3 10 8 10 11 0 2 -4 4 -10 4 -5 0 -10
-5 -10 -11z"/>
<path d="M3718 2093 c7 -3 16 -2 19 1 4 3 -2 6 -13 5 -11 0 -14 -3 -6 -6z"/>
<path d="M5740 1881 c19 -17 40 -30 45 -31 11 0 -30 36 -60 51 -11 6 -4 -3 15
-20z"/>
<path d="M2048 1893 c7 -3 16 -2 19 1 4 3 -2 6 -13 5 -11 0 -14 -3 -6 -6z"/>
<path d="M2195 1822 c-4 -24 -5 -46 -2 -49 8 -7 20 63 14 79 -2 7 -7 -6 -12
-30z"/>
<path d="M5722 1808 c-29 -12 -51 -22 -50 -24 6 -6 118 30 118 38 0 11 -5 9
-68 -14z"/>
<path d="M5638 1773 c7 -3 16 -2 19 1 4 3 -2 6 -13 5 -11 0 -14 -3 -6 -6z"/>
<path d="M5811 1715 c57 -127 89 -195 94 -195 11 0 -10 58 -51 140 -54 109
-83 146 -43 55z"/>
<path d="M2061 1697 c-16 -93 -14 -146 9 -202 12 -27 17 -36 13 -20 -4 17 -8
87 -7 158 0 70 -1 127 -2 127 -1 0 -7 -28 -13 -63z"/>
<path d="M5470 1749 c-25 -4 -71 -8 -102 -8 -32 -1 -58 -5 -58 -11 0 -5 14
-10 30 -10 35 0 223 29 229 36 6 6 -47 3 -99 -7z"/>
<path d="M2302 1735 c0 -21 25 -107 27 -90 0 6 -6 33 -13 60 -8 28 -14 41 -14
30z"/>
<path d="M5695 1733 c4 -10 20 -53 37 -96 17 -43 32 -76 35 -74 7 8 -59 187
-69 187 -6 0 -7 -8 -3 -17z"/>
<path d="M2330 1611 c0 -11 4 -22 9 -25 4 -3 6 6 3 19 -5 30 -12 33 -12 6z"/>
<path d="M5421 1618 c-1 -22 41 -136 45 -123 2 6 -7 39 -21 75 -13 36 -24 57
-24 48z"/>
<path d="M5594 1613 c38 -132 59 -194 68 -199 6 -4 8 -1 5 7 -3 8 -20 58 -37
112 -17 53 -33 97 -36 97 -3 0 -3 -8 0 -17z"/>
<path d="M5771 1540 c-1 -18 56 -161 70 -175 6 -5 3 8 -6 30 -9 22 -22 54 -27
70 -6 17 -14 35 -18 40 -4 6 -10 19 -13 30 -3 11 -5 14 -6 5z"/>
<path d="M2360 1504 c0 -18 40 -144 46 -144 3 0 3 13 -1 29 -8 38 -44 129 -45
115z"/>
<path d="M2283 1369 c17 -44 33 -77 34 -72 2 6 -6 31 -17 57 -11 26 -20 53
-20 61 0 7 -6 18 -14 24 -8 7 -1 -22 17 -70z"/>
<path d="M5680 1375 c0 -5 5 -17 10 -25 5 -8 10 -10 10 -5 0 6 -5 17 -10 25
-5 8 -10 11 -10 5z"/>
<path d="M4483 1280 c0 -25 2 -35 4 -22 2 12 2 32 0 45 -2 12 -4 2 -4 -23z"/>
<path d="M2436 1260 c4 -19 13 -53 20 -75 l13 -40 -5 44 c-4 24 -13 58 -20 75
l-15 31 7 -35z"/>
<path d="M4190 1275 c-24 -14 -24 -14 -4 -15 12 0 24 7 28 15 6 18 7 18 -24 0z"/>
<path d="M5556 1267 c3 -10 9 -15 12 -12 3 3 0 11 -7 18 -10 9 -11 8 -5 -6z"/>
<path d="M4130 1250 c-8 -5 -12 -11 -10 -14 3 -2 14 2 24 10 22 15 10 19 -14
4z"/>
<path d="M4220 1253 c0 -2 9 -12 21 -24 17 -17 20 -17 17 -3 -4 23 18 29 25 7
11 -32 47 -88 47 -73 0 8 -11 33 -23 55 -19 34 -28 40 -55 40 -18 0 -32 -1
-32 -2z"/>
<path d="M2236 1217 c3 -10 9 -15 12 -12 3 3 0 11 -7 18 -10 9 -11 8 -5 -6z"/>
<path d="M5581 1214 c0 -11 3 -14 6 -6 3 7 2 16 -1 19 -3 4 -6 -2 -5 -13z"/>
<path d="M4027 1194 c-10 -13 -14 -24 -9 -24 13 0 35 27 30 39 -1 5 -11 -2
-21 -15z"/>
<path d="M4450 1199 l-35 -20 35 7 c38 7 57 19 43 27 -4 3 -24 -4 -43 -14z"/>
<path d="M4000 1133 c0 -24 -2 -25 -45 -21 -25 3 -52 11 -60 18 -11 9 -46 13
-105 12 -93 -1 -111 -5 -109 -25 0 -9 2 -9 6 1 8 19 181 17 203 -3 10 -9 43
-18 76 -20 36 -3 60 -9 63 -17 2 -7 25 -34 52 -59 42 -40 47 -48 34 -59 -19
-16 -19 -70 0 -96 20 -26 20 -108 -1 -125 -8 -7 -41 -15 -72 -17 -43 -4 -51
-7 -35 -13 33 -12 114 -1 128 18 7 9 16 64 20 122 8 124 15 141 57 141 l31 0
-7 -77 c-3 -43 -12 -111 -18 -150 -7 -40 -9 -75 -6 -79 11 -11 118 8 118 21 0
8 -9 10 -24 8 -13 -3 -33 0 -45 6 -17 10 -20 19 -17 54 2 23 4 79 5 125 1 82
1 84 37 118 20 19 40 34 43 34 4 0 7 12 9 28 l1 27 -22 -26 c-19 -23 -29 -25
-86 -25 -56 1 -65 4 -80 26 -9 13 -24 31 -33 39 -10 9 -18 22 -18 29 0 10 -8
7 -29 -7 -34 -24 -45 -26 -38 -7 3 8 -2 16 -14 19 -15 4 -19 0 -19 -20z m138
-218 c0 -14 -4 -25 -9 -25 -10 0 -12 34 -2 43 10 10 11 9 11 -18z"/>
<path d="M3387 1143 c-4 -3 -7 -18 -7 -31 0 -32 11 -23 14 12 3 28 3 30 -7 19z"/>
<path d="M3674 1086 c-3 -7 -4 -35 -2 -62 l3 -49 5 63 c5 63 4 73 -6 48z"/>
<path d="M3370 1045 c0 -23 5 -46 11 -52 7 -7 6 -14 -3 -24 -21 -21 -29 -49
-15 -49 38 0 47 55 22 125 l-14 40 -1 -40z"/>
<path d="M2601 1044 c0 -11 3 -14 6 -6 3 7 2 16 -1 19 -3 4 -6 -2 -5 -13z"/>
<path d="M3720 990 c-13 -8 -12 -10 3 -10 9 0 17 5 17 10 0 12 -1 12 -20 0z"/>
<path d="M3627 956 c-3 -8 0 -19 6 -24 9 -8 12 -4 12 14 0 27 -10 32 -18 10z"/>
<path d="M4411 926 c-1 -38 -1 -39 -21 -21 -29 26 -38 10 -9 -17 13 -13 32
-34 42 -48 10 -14 15 -19 11 -11 -4 8 -10 42 -14 75 -6 47 -8 52 -9 22z"/>
<path d="M4542 905 c-1 -16 -5 -48 -7 -70 -5 -35 -4 -37 5 -15 6 13 9 45 7 70
-2 28 -4 34 -5 15z"/>
<path d="M3657 913 c-10 -10 -8 -45 2 -39 11 7 21 46 12 46 -4 0 -11 -3 -14
-7z"/>
<path d="M2930 900 c0 -5 5 -10 10 -10 6 0 10 5 10 10 0 6 -4 10 -10 10 -5 0
-10 -4 -10 -10z"/>
<path d="M4070 780 c19 -13 30 -13 30 0 0 6 -10 10 -22 10 -19 0 -20 -2 -8
-10z"/>
<path d="M4530 767 c0 -13 3 -17 8 -11 4 6 14 13 22 16 10 3 8 6 -8 10 -18 5
-22 2 -22 -15z"/>
<path d="M3650 762 c0 -12 19 -26 26 -19 2 2 -2 10 -11 17 -9 8 -15 8 -15 2z"/>
<path d="M3692 724 c4 -3 46 -8 95 -10 48 -3 100 -7 115 -9 15 -2 30 -1 32 4
3 4 -36 11 -86 15 -112 8 -163 8 -156 0z"/>
</g>
</svg>
